<?xml version="1.0" encoding="UTF-8" standalone="no"?>
<svg
   xmlns:dc="http://purl.org/dc/elements/1.1/"
   xmlns:cc="http://creativecommons.org/ns#"
   xmlns:rdf="http://www.w3.org/1999/02/22-rdf-syntax-ns#"
   xmlns:svg="http://www.w3.org/2000/svg"
   xmlns="http://www.w3.org/2000/svg"
   xmlns:xlink="http://www.w3.org/1999/xlink"
   xmlns:sodipodi="http://sodipodi.sourceforge.net/DTD/sodipodi-0.dtd"
   xmlns:inkscape="http://www.inkscape.org/namespaces/inkscape"
   width="1562px"
   height="173px"
   viewBox="0 0 1562 173"
   version="1.1"
   id="svg2"
   inkscape:version="0.47 r22583"
   sodipodi:docname="CF.svg">
  <metadata
     id="metadata330">
    <rdf:RDF>
      <cc:Work
         rdf:about="">
        <dc:format>image/svg+xml</dc:format>
        <dc:type
           rdf:resource="http://purl.org/dc/dcmitype/StillImage" />
      </cc:Work>
    </rdf:RDF>
  </metadata>
  <sodipodi:namedview
     pagecolor="#ffffff"
     bordercolor="#666666"
     borderopacity="1"
     objecttolerance="10"
     gridtolerance="10"
     guidetolerance="10"
     inkscape:pageopacity="0"
     inkscape:pageshadow="2"
     inkscape:window-width="1440"
     inkscape:window-height="838"
     id="namedview328"
     showgrid="false"
     inkscape:zoom="0.34571063"
     inkscape:cx="781"
     inkscape:cy="86.5"
     inkscape:window-x="-8"
     inkscape:window-y="-8"
     inkscape:window-maximized="1"
     inkscape:current-layer="CF" />
  <!-- Generator: Sketch 53.2 (72643) - https://sketchapp.com -->
  <title
     id="title4">Group</title>
  <desc
     id="desc6">Created with Sketch.</desc>
  <defs
     id="defs8">
    <inkscape:perspective
       sodipodi:type="inkscape:persp3d"
       inkscape:vp_x="0 : 86.5 : 1"
       inkscape:vp_y="0 : 1000 : 0"
       inkscape:vp_z="1562 : 86.5 : 1"
       inkscape:persp3d-origin="781 : 57.666667 : 1"
       id="perspective332" />
    <path
       d="M21,10.4 L19.6,9 L12,16.6 L8.4,13 L7,14.4 L12,19.4 L21,10.4 Z M14,0 C6.3,0 0,6.3 0,14 C0,21.7 6.3,28 14,28 C21.7,28 28,21.7 28,14 C28,6.3 21.7,0 14,0 Z M14,26 C7.4,26 2,20.6 2,14 C2,7.4 7.4,2 14,2 C20.6,2 26,7.4 26,14 C26,20.6 20.6,26 14,26 Z"
       id="path-1" />
    <path
       d="M21,10.4 L19.6,9 L12,16.6 L8.4,13 L7,14.4 L12,19.4 L21,10.4 Z M14,0 C6.3,0 0,6.3 0,14 C0,21.7 6.3,28 14,28 C21.7,28 28,21.7 28,14 C28,6.3 21.7,0 14,0 Z M14,26 C7.4,26 2,20.6 2,14 C2,7.4 7.4,2 14,2 C20.6,2 26,7.4 26,14 C26,20.6 20.6,26 14,26 Z"
       id="path-3" />
    <path
       d="M21,10.4 L19.6,9 L12,16.6 L8.4,13 L7,14.4 L12,19.4 L21,10.4 Z M14,0 C6.3,0 0,6.3 0,14 C0,21.7 6.3,28 14,28 C21.7,28 28,21.7 28,14 C28,6.3 21.7,0 14,0 Z M14,26 C7.4,26 2,20.6 2,14 C2,7.4 7.4,2 14,2 C20.6,2 26,7.4 26,14 C26,20.6 20.6,26 14,26 Z"
       id="path-5" />
    <path
       d="M21,10.4 L19.6,9 L12,16.6 L8.4,13 L7,14.4 L12,19.4 L21,10.4 Z M14,0 C6.3,0 0,6.3 0,14 C0,21.7 6.3,28 14,28 C21.7,28 28,21.7 28,14 C28,6.3 21.7,0 14,0 Z M14,26 C7.4,26 2,20.6 2,14 C2,7.4 7.4,2 14,2 C20.6,2 26,7.4 26,14 C26,20.6 20.6,26 14,26 Z"
       id="path-7" />
    <path
       d="M21,10.4 L19.6,9 L12,16.6 L8.4,13 L7,14.4 L12,19.4 L21,10.4 Z M14,0 C6.3,0 0,6.3 0,14 C0,21.7 6.3,28 14,28 C21.7,28 28,21.7 28,14 C28,6.3 21.7,0 14,0 Z M14,26 C7.4,26 2,20.6 2,14 C2,7.4 7.4,2 14,2 C20.6,2 26,7.4 26,14 C26,20.6 20.6,26 14,26 Z"
       id="path-9" />
    <path
       d="M21,10.4 L19.6,9 L12,16.6 L8.4,13 L7,14.4 L12,19.4 L21,10.4 Z M14,0 C6.3,0 0,6.3 0,14 C0,21.7 6.3,28 14,28 C21.7,28 28,21.7 28,14 C28,6.3 21.7,0 14,0 Z M14,26 C7.4,26 2,20.6 2,14 C2,7.4 7.4,2 14,2 C20.6,2 26,7.4 26,14 C26,20.6 20.6,26 14,26 Z"
       id="path-11" />
    <rect
       id="path-13"
       x="0"
       y="0"
       width="381"
       height="80" />
    <filter
       x="-1.2%"
       y="-4.4%"
       width="102.4%"
       height="111.2%"
       filterUnits="objectBoundingBox"
       id="filter-14">
      <feMorphology
         radius="1"
         operator="dilate"
         in="SourceAlpha"
         result="shadowSpreadOuter1"
         id="feMorphology18" />
      <feOffset
         dx="0"
         dy="1"
         in="shadowSpreadOuter1"
         result="shadowOffsetOuter1"
         id="feOffset20" />
      <feGaussianBlur
         stdDeviation="1"
         in="shadowOffsetOuter1"
         result="shadowBlurOuter1"
         id="feGaussianBlur22" />
      <feComposite
         in="shadowBlurOuter1"
         in2="SourceAlpha"
         operator="out"
         result="shadowBlurOuter1"
         id="feComposite24" />
      <feColorMatrix
         values="0 0 0 0 0   0 0 0 0 0   0 0 0 0 0  0 0 0 0.1 0"
         type="matrix"
         in="shadowBlurOuter1"
         id="feColorMatrix26" />
    </filter>
    <path
       d="M7.5,1.25 C8.875,1.25 10.125,2 10.75,3.1875 L11.1875,3.9375 L12,3.8125 C12.1875,3.8125 12.375,3.75 12.5,3.75 C14.5625,3.75 16.25,5.4375 16.25,7.5 C16.25,9.375 14.8125,11 13,11.1875 L12.6875,11.25 L3.75,11.25 C2.375,11.25 1.25,10.125 1.25,8.75 C1.25,7.6875 1.9375,6.75 2.9375,6.375 L3.8125,6.0625 L3.75,5.1875 L3.75,5.0625 L3.75,5 C3.75,2.9375 5.4375,1.25 7.5,1.25 L7.5,1.25 Z M7.5,0 C4.75,0 2.5,2.25 2.5,5 C2.5,5.0625 2.5,5.125 2.5,5.1875 C1.0625,5.6875 0,7.0625 0,8.75 C0,10.8125 1.6875,12.5 3.75,12.5 L13.125,12.5 L13.125,12.4375 C15.5625,12.125 17.5,10 17.5,7.5 C17.5,4.75 15.25,2.5 12.5,2.5 C12.25,2.5 12.0625,2.5 11.875,2.5625 C11,1 9.375,0 7.5,0 L7.5,0 Z"
       id="path-15" />
    <path
       d="M7.5,1.25 C8.875,1.25 10.125,2 10.75,3.1875 L11.1875,3.9375 L12,3.8125 C12.1875,3.8125 12.375,3.75 12.5,3.75 C14.5625,3.75 16.25,5.4375 16.25,7.5 C16.25,9.375 14.8125,11 13,11.1875 L12.6875,11.25 L3.75,11.25 C2.375,11.25 1.25,10.125 1.25,8.75 C1.25,7.6875 1.9375,6.75 2.9375,6.375 L3.8125,6.0625 L3.75,5.1875 L3.75,5.0625 L3.75,5 C3.75,2.9375 5.4375,1.25 7.5,1.25 L7.5,1.25 Z M7.5,0 C4.75,0 2.5,2.25 2.5,5 C2.5,5.0625 2.5,5.125 2.5,5.1875 C1.0625,5.6875 0,7.0625 0,8.75 C0,10.8125 1.6875,12.5 3.75,12.5 L13.125,12.5 L13.125,12.4375 C15.5625,12.125 17.5,10 17.5,7.5 C17.5,4.75 15.25,2.5 12.5,2.5 C12.25,2.5 12.0625,2.5 11.875,2.5625 C11,1 9.375,0 7.5,0 L7.5,0 Z"
       id="path-17" />
    <path
       d="M7.5,1.25 C8.875,1.25 10.125,2 10.75,3.1875 L11.1875,3.9375 L12,3.8125 C12.1875,3.8125 12.375,3.75 12.5,3.75 C14.5625,3.75 16.25,5.4375 16.25,7.5 C16.25,9.375 14.8125,11 13,11.1875 L12.6875,11.25 L3.75,11.25 C2.375,11.25 1.25,10.125 1.25,8.75 C1.25,7.6875 1.9375,6.75 2.9375,6.375 L3.8125,6.0625 L3.75,5.1875 L3.75,5.0625 L3.75,5 C3.75,2.9375 5.4375,1.25 7.5,1.25 L7.5,1.25 Z M7.5,0 C4.75,0 2.5,2.25 2.5,5 C2.5,5.0625 2.5,5.125 2.5,5.1875 C1.0625,5.6875 0,7.0625 0,8.75 C0,10.8125 1.6875,12.5 3.75,12.5 L13.125,12.5 L13.125,12.4375 C15.5625,12.125 17.5,10 17.5,7.5 C17.5,4.75 15.25,2.5 12.5,2.5 C12.25,2.5 12.0625,2.5 11.875,2.5625 C11,1 9.375,0 7.5,0 L7.5,0 Z"
       id="path-19" />
    <path
       d="M7.5,1.25 C8.875,1.25 10.125,2 10.75,3.1875 L11.1875,3.9375 L12,3.8125 C12.1875,3.8125 12.375,3.75 12.5,3.75 C14.5625,3.75 16.25,5.4375 16.25,7.5 C16.25,9.375 14.8125,11 13,11.1875 L12.6875,11.25 L3.75,11.25 C2.375,11.25 1.25,10.125 1.25,8.75 C1.25,7.6875 1.9375,6.75 2.9375,6.375 L3.8125,6.0625 L3.75,5.1875 L3.75,5.0625 L3.75,5 C3.75,2.9375 5.4375,1.25 7.5,1.25 L7.5,1.25 Z M7.5,0 C4.75,0 2.5,2.25 2.5,5 C2.5,5.0625 2.5,5.125 2.5,5.1875 C1.0625,5.6875 0,7.0625 0,8.75 C0,10.8125 1.6875,12.5 3.75,12.5 L13.125,12.5 L13.125,12.4375 C15.5625,12.125 17.5,10 17.5,7.5 C17.5,4.75 15.25,2.5 12.5,2.5 C12.25,2.5 12.0625,2.5 11.875,2.5625 C11,1 9.375,0 7.5,0 L7.5,0 Z"
       id="path-21" />
    <path
       d="M7.5,1.25 C8.875,1.25 10.125,2 10.75,3.1875 L11.1875,3.9375 L12,3.8125 C12.1875,3.8125 12.375,3.75 12.5,3.75 C14.5625,3.75 16.25,5.4375 16.25,7.5 C16.25,9.375 14.8125,11 13,11.1875 L12.6875,11.25 L3.75,11.25 C2.375,11.25 1.25,10.125 1.25,8.75 C1.25,7.6875 1.9375,6.75 2.9375,6.375 L3.8125,6.0625 L3.75,5.1875 L3.75,5.0625 L3.75,5 C3.75,2.9375 5.4375,1.25 7.5,1.25 L7.5,1.25 Z M7.5,0 C4.75,0 2.5,2.25 2.5,5 C2.5,5.0625 2.5,5.125 2.5,5.1875 C1.0625,5.6875 0,7.0625 0,8.75 C0,10.8125 1.6875,12.5 3.75,12.5 L13.125,12.5 L13.125,12.4375 C15.5625,12.125 17.5,10 17.5,7.5 C17.5,4.75 15.25,2.5 12.5,2.5 C12.25,2.5 12.0625,2.5 11.875,2.5625 C11,1 9.375,0 7.5,0 L7.5,0 Z"
       id="path-23" />
    <rect
       id="path-25"
       x="0"
       y="0"
       width="381"
       height="50" />
    <filter
       x="-1.2%"
       y="-7.0%"
       width="102.4%"
       height="118.0%"
       filterUnits="objectBoundingBox"
       id="filter-26">
      <feMorphology
         radius="1"
         operator="dilate"
         in="SourceAlpha"
         result="shadowSpreadOuter1"
         id="feMorphology35" />
      <feOffset
         dx="0"
         dy="1"
         in="shadowSpreadOuter1"
         result="shadowOffsetOuter1"
         id="feOffset37" />
      <feGaussianBlur
         stdDeviation="1"
         in="shadowOffsetOuter1"
         result="shadowBlurOuter1"
         id="feGaussianBlur39" />
      <feComposite
         in="shadowBlurOuter1"
         in2="SourceAlpha"
         operator="out"
         result="shadowBlurOuter1"
         id="feComposite41" />
      <feColorMatrix
         values="0 0 0 0 0   0 0 0 0 0   0 0 0 0 0  0 0 0 0.1 0"
         type="matrix"
         in="shadowBlurOuter1"
         id="feColorMatrix43" />
    </filter>
    <path
       d="M12,2 C14.2,2 16.2,3.2 17.2,5.1 L17.9,6.3 L19.2,6.1 C19.5,6.1 19.8,6 20,6 C23.3,6 26,8.7 26,12 C26,15 23.7,17.6 20.8,17.9 L20.3,18 L6,18 C3.8,18 2,16.2 2,14 C2,12.3 3.1,10.8 4.7,10.2 L6.1,9.7 L6,8.3 L6,8.1 L6,8 C6,4.7 8.7,2 12,2 L12,2 Z M12,0 C7.6,0 4,3.6 4,8 C4,8.1 4,8.2 4,8.3 C1.7,9.1 0,11.3 0,14 C0,17.3 2.7,20 6,20 L21,20 L21,19.9 C24.9,19.4 28,16 28,12 C28,7.6 24.4,4 20,4 C19.6,4 19.3,4 19,4.1 C17.6,1.6 15,0 12,0 L12,0 Z"
       id="path-27" />
    <rect
       id="path-29"
       x="163"
       y="39"
       width="176"
       height="50" />
    <filter
       x="-2.6%"
       y="-7.0%"
       width="105.1%"
       height="118.0%"
       filterUnits="objectBoundingBox"
       id="filter-30">
      <feMorphology
         radius="1"
         operator="dilate"
         in="SourceAlpha"
         result="shadowSpreadOuter1"
         id="feMorphology48" />
      <feOffset
         dx="0"
         dy="1"
         in="shadowSpreadOuter1"
         result="shadowOffsetOuter1"
         id="feOffset50" />
      <feGaussianBlur
         stdDeviation="1"
         in="shadowOffsetOuter1"
         result="shadowBlurOuter1"
         id="feGaussianBlur52" />
      <feComposite
         in="shadowBlurOuter1"
         in2="SourceAlpha"
         operator="out"
         result="shadowBlurOuter1"
         id="feComposite54" />
      <feColorMatrix
         values="0 0 0 0 0   0 0 0 0 0   0 0 0 0 0  0 0 0 0.1 0"
         type="matrix"
         in="shadowBlurOuter1"
         id="feColorMatrix56" />
    </filter>
    <path
       d="M14,8.8817842e-16 C6.2680135,-4.4408921e-16 8.8817842e-16,6.2680135 0,14 C-8.8817842e-16,21.7319865 6.2680135,28 14,28 C21.7319865,28 28,21.7319865 28,14 C28,10.2869691 26.5250042,6.72601436 23.8994949,4.10050506 C21.2739856,1.47499577 17.7130309,4.4408921e-16 14,8.8817842e-16 Z M8,24.38 L8,22.38 C7.90310211,20.6210031 9.24193729,19.1125821 11,19 L17,19 C18.7621862,19.1125345 20.1026051,20.6272078 20,22.39 L20,24.39 C16.2927991,26.5544365 11.7072009,26.5544365 8,24.39 L8,24.38 Z M22,22.92 L22,22.31 C22.0621247,19.4719356 19.83667,17.1085026 17,17 L11,17 C8.16333004,17.1085026 5.93787529,19.4719356 6,22.31 L6,22.93 C2.29156128,19.6130716 1.01460169,14.3517373 2.78993169,9.70386301 C4.56526169,5.05598873 9.02460736,1.98572809 14,1.98572809 C18.9753926,1.98572809 23.4347383,5.05598873 25.2100683,9.70386301 C26.9853983,14.3517373 25.7084387,19.6130716 22,22.93 L22,22.92 Z M14,5 C11.2385763,5 9,7.23857625 9,10 C9,12.7614237 11.2385763,15 14,15 C16.7614237,15 19,12.7614237 19,10 C19,8.67391755 18.4732158,7.40214799 17.5355339,6.46446609 C16.597852,5.5267842 15.3260824,5 14,5 Z M14,13 C12.3431458,13 11,11.6568542 11,10 C11,8.34314575 12.3431458,7 14,7 C15.6568542,7 17,8.34314575 17,10 C17,10.7956495 16.6839295,11.5587112 16.1213203,12.1213203 C15.5587112,12.6839295 14.7956495,13 14,13 Z"
       id="path-31" />
  </defs>
  <g
     id="Page-1"
     stroke="none"
     stroke-width="1"
     fill="none"
     fill-rule="evenodd">
    <g
       id="CF"
       transform="translate(-55.000000, -58.000000)">
      <g
         id="Group"
         transform="translate(54.000000, 51.000000)">
        <text
           id="Organization-roles"
           font-family="IBMPlexSans-Italic, IBM Plex Sans"
           font-size="18"
           font-style="italic"
           font-weight="normal"
           fill="#13171A">
          <tspan
             x="1166"
             y="25"
             id="tspan63"
             style="-inkscape-font-specification:SimHei;font-family:SimHei">组织角色</tspan>
        </text>
        <text
           id="Space-roles"
           font-family="IBMPlexSans-Italic, IBM Plex Sans"
           font-size="18"
           font-style="italic"
           font-weight="normal"
           fill="#13171A">
          <tspan
             x="1410"
             y="22"
             id="tspan66"
             style="-inkscape-font-specification:SimHei;font-family:SimHei">空间角色</tspan>
        </text>
        <text
           id="Manager"
           font-family="IBMPlexSans, IBM Plex Sans"
           font-size="24"
           font-weight="normal"
           line-spacing="24"
           fill="#13171A">
          <tspan
             x="1210"
             y="71"
             id="tspan69"
             style="-inkscape-font-specification:SimHei;font-family:SimHei">管理者</tspan>
        </text>
        <g
           id="icon/status/checkmark/32"
           transform="translate(1166.000000, 44.000000)">
          <g
             id="checkmark"
             stroke-width="1"
             fill-rule="evenodd"
             transform="translate(2.000000, 2.000000)">
            <mask
               id="mask-2"
               fill="white">
              <use
                 xlink:href="#path-1"
                 id="use74" />
            </mask>
            <use
               id="Mask"
               fill="#000000"
               fill-rule="nonzero"
               xlink:href="#path-1" />
            <g
               id="color/green/50"
               mask="url(#mask-2)">
              <g
                 transform="translate(-2.000000, -2.000000)"
                 id="g78" />
            </g>
          </g>
          <rect
             id="transparent-rectangle"
             x="0"
             y="0"
             width="32"
             height="32" />
        </g>
        <text
           id="text81"
           font-family="IBMPlexSans, IBM Plex Sans"
           font-size="24"
           font-weight="normal"
           line-spacing="24"
           fill="#13171A">
          <tspan
             x="1454"
             y="71"
             id="tspan83"
             style="-inkscape-font-specification:SimHei;font-family:SimHei">管理者</tspan>
        </text>
        <g
           id="g85"
           transform="translate(1410.000000, 44.000000)">
          <g
             id="g87"
             stroke-width="1"
             fill-rule="evenodd"
             transform="translate(2.000000, 2.000000)">
            <mask
               id="mask-4"
               fill="white">
              <use
                 xlink:href="#path-3"
                 id="use90" />
            </mask>
            <use
               id="use92"
               fill="#000000"
               fill-rule="nonzero"
               xlink:href="#path-3" />
            <g
               id="g94"
               mask="url(#mask-4)">
              <g
                 transform="translate(-2.000000, -2.000000)"
                 id="g96" />
            </g>
          </g>
          <rect
             id="rect98"
             x="0"
             y="0"
             width="32"
             height="32" />
        </g>
        <text
           id="Billing-Manager"
           font-family="IBMPlexSans, IBM Plex Sans"
           font-size="24"
           font-weight="normal"
           line-spacing="24"
           fill="#13171A">
          <tspan
             x="1210"
             y="110"
             id="tspan101"
             style="-inkscape-font-specification:SimHei;font-family:SimHei">记帐管理者</tspan>
        </text>
        <g
           id="g103"
           transform="translate(1166.000000, 83.000000)">
          <g
             id="g105"
             stroke-width="1"
             fill-rule="evenodd"
             transform="translate(2.000000, 2.000000)">
            <mask
               id="mask-6"
               fill="white">
              <use
                 xlink:href="#path-5"
                 id="use108" />
            </mask>
            <use
               id="use110"
               fill="#000000"
               fill-rule="nonzero"
               xlink:href="#path-5" />
            <g
               id="g112"
               mask="url(#mask-6)">
              <g
                 transform="translate(-2.000000, -2.000000)"
                 id="g114" />
            </g>
          </g>
          <rect
             id="rect116"
             x="0"
             y="0"
             width="32"
             height="32" />
        </g>
        <text
           id="Developer"
           font-family="IBMPlexSans, IBM Plex Sans"
           font-size="24"
           font-weight="normal"
           line-spacing="24"
           fill="#13171A">
          <tspan
             x="1454"
             y="110"
             id="tspan119"
             style="-inkscape-font-specification:SimHei;font-family:SimHei">开发者</tspan>
        </text>
        <g
           id="g121"
           transform="translate(1410.000000, 83.000000)">
          <g
             id="g123"
             stroke-width="1"
             fill-rule="evenodd"
             transform="translate(2.000000, 2.000000)">
            <mask
               id="mask-8"
               fill="white">
              <use
                 xlink:href="#path-7"
                 id="use126" />
            </mask>
            <use
               id="use128"
               fill="#000000"
               fill-rule="nonzero"
               xlink:href="#path-7" />
            <g
               id="g130"
               mask="url(#mask-8)">
              <g
                 transform="translate(-2.000000, -2.000000)"
                 id="g132" />
            </g>
          </g>
          <rect
             id="rect134"
             x="0"
             y="0"
             width="32"
             height="32" />
        </g>
        <text
           id="Auditor"
           font-family="IBMPlexSans, IBM Plex Sans"
           font-size="24"
           font-weight="normal"
           line-spacing="24"
           fill="#13171A">
          <tspan
             x="1210"
             y="149"
             id="tspan137"
             style="-inkscape-font-specification:SimHei;font-family:SimHei">审计员</tspan>
        </text>
        <g
           id="g139"
           transform="translate(1166.000000, 122.000000)">
          <g
             id="g141"
             stroke-width="1"
             fill-rule="evenodd"
             transform="translate(2.000000, 2.000000)">
            <mask
               id="mask-10"
               fill="white">
              <use
                 xlink:href="#path-9"
                 id="use144" />
            </mask>
            <use
               id="use146"
               fill="#000000"
               fill-rule="nonzero"
               xlink:href="#path-9" />
            <g
               id="g148"
               mask="url(#mask-10)">
              <g
                 transform="translate(-2.000000, -2.000000)"
                 id="g150" />
            </g>
          </g>
          <rect
             id="rect152"
             x="0"
             y="0"
             width="32"
             height="32" />
        </g>
        <text
           id="text154"
           font-family="IBMPlexSans, IBM Plex Sans"
           font-size="24"
           font-weight="normal"
           line-spacing="24"
           fill="#13171A">
          <tspan
             x="1454"
             y="149"
             id="tspan156"
             style="-inkscape-font-specification:SimHei;font-family:SimHei">审计员</tspan>
        </text>
        <g
           id="g158"
           transform="translate(1410.000000, 122.000000)">
          <g
             id="g160"
             stroke-width="1"
             fill-rule="evenodd"
             transform="translate(2.000000, 2.000000)">
            <mask
               id="mask-12"
               fill="white">
              <use
                 xlink:href="#path-11"
                 id="use163" />
            </mask>
            <use
               id="use165"
               fill="#000000"
               fill-rule="nonzero"
               xlink:href="#path-11" />
            <g
               id="g167"
               mask="url(#mask-12)">
              <g
                 transform="translate(-2.000000, -2.000000)"
                 id="g169" />
            </g>
          </g>
          <rect
             id="rect171"
             x="0"
             y="0"
             width="32"
             height="32" />
        </g>
        <g
           id="Group-2"
           transform="translate(478.000000, 39.000000)">
          <g
             id="Active">
            <use
               fill="black"
               fill-opacity="1"
               filter="url(#filter-14)"
               xlink:href="#path-13"
               id="use175" />
            <rect
               stroke="#24A249"
               stroke-width="1"
               fill="#DAFBE4"
               fill-rule="evenodd"
               x="-0.5"
               y="-0.5"
               width="382"
               height="81"
               id="rect177" />
          </g>
          <text
             id="Cloud-Foundry-Organi"
             font-family="IBMPlexSans, IBM Plex Sans"
             font-size="24"
             font-weight="normal"
             fill="#13171A">
            <tspan
               x="16"
               y="33"
               id="tspan180">Cloud Foundry <tspan
   style="-inkscape-font-specification:SimHei;font-family:SimHei"
   id="tspan3138">组织</tspan>
</tspan>
          </text>
          <g
             id="icon/image/cloud/20"
             transform="translate(17.000000, 47.000000)">
            <g
               id="g183">
              <g
                 id="cloud"
                 transform="translate(1.250000, 3.750000)">
                <mask
                   id="mask-16"
                   fill="white">
                  <use
                     xlink:href="#path-15"
                     id="use187" />
                </mask>
                <use
                   id="use189"
                   fill="#000000"
                   fill-rule="nonzero"
                   xlink:href="#path-15" />
                <g
                   id="color/black"
                   mask="url(#mask-16)">
                  <g
                     transform="translate(-1.250000, -3.750000)"
                     id="g192" />
                </g>
              </g>
              <rect
                 id="rect194"
                 x="0"
                 y="0"
                 width="20"
                 height="20" />
            </g>
          </g>
          <g
             id="g196"
             transform="translate(43.000000, 47.000000)">
            <g
               id="g198">
              <g
                 id="g200"
                 transform="translate(1.250000, 3.750000)">
                <mask
                   id="mask-18"
                   fill="white">
                  <use
                     xlink:href="#path-17"
                     id="use203" />
                </mask>
                <use
                   id="use205"
                   fill="#000000"
                   fill-rule="nonzero"
                   xlink:href="#path-17" />
                <g
                   id="g207"
                   mask="url(#mask-18)">
                  <g
                     transform="translate(-1.250000, -3.750000)"
                     id="g209" />
                </g>
              </g>
              <rect
                 id="rect211"
                 x="0"
                 y="0"
                 width="20"
                 height="20" />
            </g>
          </g>
          <g
             id="g213"
             transform="translate(68.000000, 47.000000)">
            <g
               id="g215">
              <g
                 id="g217"
                 transform="translate(1.250000, 3.750000)">
                <mask
                   id="mask-20"
                   fill="white">
                  <use
                     xlink:href="#path-19"
                     id="use220" />
                </mask>
                <use
                   id="use222"
                   fill="#000000"
                   fill-rule="nonzero"
                   xlink:href="#path-19" />
                <g
                   id="g224"
                   mask="url(#mask-20)">
                  <g
                     transform="translate(-1.250000, -3.750000)"
                     id="g226" />
                </g>
              </g>
              <rect
                 id="rect228"
                 x="0"
                 y="0"
                 width="20"
                 height="20" />
            </g>
          </g>
          <g
             id="g230"
             transform="translate(94.000000, 47.000000)">
            <g
               id="g232">
              <g
                 id="g234"
                 transform="translate(1.250000, 3.750000)">
                <mask
                   id="mask-22"
                   fill="white">
                  <use
                     xlink:href="#path-21"
                     id="use237" />
                </mask>
                <use
                   id="use239"
                   fill="#000000"
                   fill-rule="nonzero"
                   xlink:href="#path-21" />
                <g
                   id="g241"
                   mask="url(#mask-22)">
                  <g
                     transform="translate(-1.250000, -3.750000)"
                     id="g243" />
                </g>
              </g>
              <rect
                 id="rect245"
                 x="0"
                 y="0"
                 width="20"
                 height="20" />
            </g>
          </g>
          <g
             id="g247"
             transform="translate(119.000000, 47.000000)">
            <g
               id="g249">
              <g
                 id="g251"
                 transform="translate(1.250000, 3.750000)">
                <mask
                   id="mask-24"
                   fill="white">
                  <use
                     xlink:href="#path-23"
                     id="use254" />
                </mask>
                <use
                   id="use256"
                   fill="#000000"
                   fill-rule="nonzero"
                   xlink:href="#path-23" />
                <g
                   id="g258"
                   mask="url(#mask-24)">
                  <g
                     transform="translate(-1.250000, -3.750000)"
                     id="g260" />
                </g>
              </g>
              <rect
                 id="rect262"
                 x="0"
                 y="0"
                 width="20"
                 height="20" />
            </g>
          </g>
        </g>
        <g
           id="g264"
           transform="translate(478.000000, 126.000000)">
          <g
             id="g266">
            <use
               fill="black"
               fill-opacity="1"
               filter="url(#filter-26)"
               xlink:href="#path-25"
               id="use268" />
            <rect
               stroke="#24A249"
               stroke-width="1"
               fill="#DAFBE4"
               fill-rule="evenodd"
               x="-0.5"
               y="-0.5"
               width="382"
               height="51"
               id="rect270" />
          </g>
          <g
             id="icon/image/cloud/32"
             transform="translate(11.000000, 9.000000)">
            <g
               id="g273">
              <g
                 id="g275"
                 transform="translate(2.000000, 6.000000)">
                <mask
                   id="mask-28"
                   fill="white">
                  <use
                     xlink:href="#path-27"
                     id="use278" />
                </mask>
                <use
                   id="use280"
                   fill="#000000"
                   fill-rule="nonzero"
                   xlink:href="#path-27" />
                <g
                   id="g282"
                   mask="url(#mask-28)">
                  <g
                     transform="translate(-2.000000, -6.000000)"
                     id="g284" />
                </g>
              </g>
              <rect
                 id="rect286"
                 x="0"
                 y="0"
                 width="32"
                 height="32" />
            </g>
          </g>
          <text
             id="Cloud-Foundry-Space"
             font-family="IBMPlexSans, IBM Plex Sans"
             font-size="24"
             font-weight="normal"
             fill="#13171A">
            <tspan
               x="49"
               y="33"
               id="tspan289">Cloud Foundry <tspan
   style="-inkscape-font-specification:SimHei;font-family:SimHei"
   id="tspan3140">空间</tspan>
</tspan>
          </text>
        </g>
        <g
           id="g291">
          <use
             fill="black"
             fill-opacity="1"
             filter="url(#filter-30)"
             xlink:href="#path-29"
             id="use293" />
          <rect
             stroke="#24A249"
             stroke-width="1"
             fill="#DAFBE4"
             fill-rule="evenodd"
             x="162.5"
             y="38.5"
             width="177"
             height="51"
             id="rect295" />
        </g>
        <text
           id="access-to"
           font-family="IBMPlexSans-Medium, IBM Plex Sans"
           font-size="24"
           font-weight="400"
           fill="#13171A">
          <tspan
             x="360"
             y="25"
             id="tspan298" />
        </text>
        <text
           id="with-specific-permis"
           font-family="IBMPlexSans-Medium, IBM Plex Sans"
           font-size="24"
           font-weight="400"
           fill="#13171A">
          <tspan
             x="878"
             y="25"
             id="tspan301" />
        </text>
        <g
           id="icon/user/avatar/32"
           transform="translate(174.000000, 48.000000)">
          <g
             id="user--avatar"
             stroke-width="1"
             fill-rule="evenodd"
             transform="translate(2.000000, 2.000000)">
            <mask
               id="mask-32"
               fill="white">
              <use
                 xlink:href="#path-31"
                 id="use306" />
            </mask>
            <use
               id="use308"
               fill="#000000"
               fill-rule="nonzero"
               xlink:href="#path-31" />
            <g
               id="g310"
               mask="url(#mask-32)">
              <g
                 transform="translate(-2.000000, -2.000000)"
                 id="g312" />
            </g>
          </g>
          <rect
             id="rect314"
             x="0"
             y="0"
             width="32"
             height="32" />
        </g>
        <text
           id="User"
           font-family="IBMPlexSans, IBM Plex Sans"
           font-size="24"
           font-weight="normal"
           fill="#13171A">
          <tspan
             x="212"
             y="72"
             id="tspan317"
             style="-inkscape-font-specification:SimHei;font-family:SimHei">用户</tspan>
        </text>
        <text
           id="I-want-to-give"
           font-size="24"
           font-weight="400"
           style="font-size:24px;font-weight:400;fill:#13171a;font-family:'IBMPlexSans-Medium, IBM Plex Sans'"
           y="4"
           x="272">
          <tspan
             x="272"
             y="29"
             id="tspan320"
             style="font-family:SimHei;-inkscape-font-specification:SimHei">我希望向主体授予对目标的特定许可权</tspan>
        </text>
        <text
           id="Subject"
           font-family="IBMPlexSans-Italic, IBM Plex Sans"
           font-size="18"
           font-style="italic"
           font-weight="normal"
           fill="#13171A">
          <tspan
             x="163"
             y="24"
             id="tspan323" />
        </text>
        <text
           id="Target"
           font-family="IBMPlexSans-Italic, IBM Plex Sans"
           font-size="18"
           font-style="italic"
           font-weight="normal"
           fill="#13171A">
          <tspan
             x="478"
             y="24"
             id="tspan326" />
        </text>
      </g>
    </g>
  </g>
</svg>
