<?xml version="1.0" encoding="UTF-8" standalone="no"?>
<svg
   xmlns:dc="http://purl.org/dc/elements/1.1/"
   xmlns:cc="http://creativecommons.org/ns#"
   xmlns:rdf="http://www.w3.org/1999/02/22-rdf-syntax-ns#"
   xmlns:svg="http://www.w3.org/2000/svg"
   xmlns="http://www.w3.org/2000/svg"
   xmlns:xlink="http://www.w3.org/1999/xlink"
   xmlns:sodipodi="http://sodipodi.sourceforge.net/DTD/sodipodi-0.dtd"
   xmlns:inkscape="http://www.inkscape.org/namespaces/inkscape"
   width="1562px"
   height="173px"
   viewBox="0 0 1562 173"
   version="1.1"
   id="svg326"
   sodipodi:docname="CF.svg"
   inkscape:version="0.92.2 (5c3e80d, 2017-08-06)">
  <metadata
     id="metadata330">
    <rdf:RDF>
      <cc:Work
         rdf:about="">
        <dc:format>image/svg+xml</dc:format>
        <dc:type
           rdf:resource="http://purl.org/dc/dcmitype/StillImage" />
      </cc:Work>
    </rdf:RDF>
  </metadata>
  <sodipodi:namedview
     pagecolor="#ffffff"
     bordercolor="#666666"
     borderopacity="1"
     objecttolerance="10"
     gridtolerance="10"
     guidetolerance="10"
     inkscape:pageopacity="0"
     inkscape:pageshadow="2"
     inkscape:window-width="1920"
     inkscape:window-height="1027"
     id="namedview328"
     showgrid="false"
     inkscape:zoom="0.65731053"
     inkscape:cx="885.49398"
     inkscape:cy="26.887769"
     inkscape:window-x="-8"
     inkscape:window-y="-8"
     inkscape:window-maximized="1"
     inkscape:current-layer="g322" />
  <!-- Generator: Sketch 53.2 (72643) - https://sketchapp.com -->
  <title
     id="title2">Group</title>
  <desc
     id="desc4">Created with Sketch.</desc>
  <defs
     id="defs55">
    <path
       d="M21,10.4 L19.6,9 L12,16.6 L8.4,13 L7,14.4 L12,19.4 L21,10.4 Z M14,0 C6.3,0 0,6.3 0,14 C0,21.7 6.3,28 14,28 C21.7,28 28,21.7 28,14 C28,6.3 21.7,0 14,0 Z M14,26 C7.4,26 2,20.6 2,14 C2,7.4 7.4,2 14,2 C20.6,2 26,7.4 26,14 C26,20.6 20.6,26 14,26 Z"
       id="path-1" />
    <path
       d="M21,10.4 L19.6,9 L12,16.6 L8.4,13 L7,14.4 L12,19.4 L21,10.4 Z M14,0 C6.3,0 0,6.3 0,14 C0,21.7 6.3,28 14,28 C21.7,28 28,21.7 28,14 C28,6.3 21.7,0 14,0 Z M14,26 C7.4,26 2,20.6 2,14 C2,7.4 7.4,2 14,2 C20.6,2 26,7.4 26,14 C26,20.6 20.6,26 14,26 Z"
       id="path-3" />
    <path
       d="M21,10.4 L19.6,9 L12,16.6 L8.4,13 L7,14.4 L12,19.4 L21,10.4 Z M14,0 C6.3,0 0,6.3 0,14 C0,21.7 6.3,28 14,28 C21.7,28 28,21.7 28,14 C28,6.3 21.7,0 14,0 Z M14,26 C7.4,26 2,20.6 2,14 C2,7.4 7.4,2 14,2 C20.6,2 26,7.4 26,14 C26,20.6 20.6,26 14,26 Z"
       id="path-5" />
    <path
       d="M21,10.4 L19.6,9 L12,16.6 L8.4,13 L7,14.4 L12,19.4 L21,10.4 Z M14,0 C6.3,0 0,6.3 0,14 C0,21.7 6.3,28 14,28 C21.7,28 28,21.7 28,14 C28,6.3 21.7,0 14,0 Z M14,26 C7.4,26 2,20.6 2,14 C2,7.4 7.4,2 14,2 C20.6,2 26,7.4 26,14 C26,20.6 20.6,26 14,26 Z"
       id="path-7" />
    <path
       d="M21,10.4 L19.6,9 L12,16.6 L8.4,13 L7,14.4 L12,19.4 L21,10.4 Z M14,0 C6.3,0 0,6.3 0,14 C0,21.7 6.3,28 14,28 C21.7,28 28,21.7 28,14 C28,6.3 21.7,0 14,0 Z M14,26 C7.4,26 2,20.6 2,14 C2,7.4 7.4,2 14,2 C20.6,2 26,7.4 26,14 C26,20.6 20.6,26 14,26 Z"
       id="path-9" />
    <path
       d="M21,10.4 L19.6,9 L12,16.6 L8.4,13 L7,14.4 L12,19.4 L21,10.4 Z M14,0 C6.3,0 0,6.3 0,14 C0,21.7 6.3,28 14,28 C21.7,28 28,21.7 28,14 C28,6.3 21.7,0 14,0 Z M14,26 C7.4,26 2,20.6 2,14 C2,7.4 7.4,2 14,2 C20.6,2 26,7.4 26,14 C26,20.6 20.6,26 14,26 Z"
       id="path-11" />
    <rect
       id="path-13"
       x="0"
       y="0"
       width="381"
       height="80" />
    <filter
       x="-1.2%"
       y="-4.4%"
       width="102.4%"
       height="111.2%"
       filterUnits="objectBoundingBox"
       id="filter-14">
      <feMorphology
         radius="1"
         operator="dilate"
         in="SourceAlpha"
         result="shadowSpreadOuter1"
         id="feMorphology13" />
      <feOffset
         dx="0"
         dy="1"
         in="shadowSpreadOuter1"
         result="shadowOffsetOuter1"
         id="feOffset15" />
      <feGaussianBlur
         stdDeviation="1"
         in="shadowOffsetOuter1"
         result="shadowBlurOuter1"
         id="feGaussianBlur17" />
      <feComposite
         in="shadowBlurOuter1"
         in2="SourceAlpha"
         operator="out"
         result="shadowBlurOuter1"
         id="feComposite19" />
      <feColorMatrix
         values="0 0 0 0 0   0 0 0 0 0   0 0 0 0 0  0 0 0 0.1 0"
         type="matrix"
         in="shadowBlurOuter1"
         id="feColorMatrix21" />
    </filter>
    <path
       d="M7.5,1.25 C8.875,1.25 10.125,2 10.75,3.1875 L11.1875,3.9375 L12,3.8125 C12.1875,3.8125 12.375,3.75 12.5,3.75 C14.5625,3.75 16.25,5.4375 16.25,7.5 C16.25,9.375 14.8125,11 13,11.1875 L12.6875,11.25 L3.75,11.25 C2.375,11.25 1.25,10.125 1.25,8.75 C1.25,7.6875 1.9375,6.75 2.9375,6.375 L3.8125,6.0625 L3.75,5.1875 L3.75,5.0625 L3.75,5 C3.75,2.9375 5.4375,1.25 7.5,1.25 L7.5,1.25 Z M7.5,0 C4.75,0 2.5,2.25 2.5,5 C2.5,5.0625 2.5,5.125 2.5,5.1875 C1.0625,5.6875 0,7.0625 0,8.75 C0,10.8125 1.6875,12.5 3.75,12.5 L13.125,12.5 L13.125,12.4375 C15.5625,12.125 17.5,10 17.5,7.5 C17.5,4.75 15.25,2.5 12.5,2.5 C12.25,2.5 12.0625,2.5 11.875,2.5625 C11,1 9.375,0 7.5,0 L7.5,0 Z"
       id="path-15" />
    <path
       d="M7.5,1.25 C8.875,1.25 10.125,2 10.75,3.1875 L11.1875,3.9375 L12,3.8125 C12.1875,3.8125 12.375,3.75 12.5,3.75 C14.5625,3.75 16.25,5.4375 16.25,7.5 C16.25,9.375 14.8125,11 13,11.1875 L12.6875,11.25 L3.75,11.25 C2.375,11.25 1.25,10.125 1.25,8.75 C1.25,7.6875 1.9375,6.75 2.9375,6.375 L3.8125,6.0625 L3.75,5.1875 L3.75,5.0625 L3.75,5 C3.75,2.9375 5.4375,1.25 7.5,1.25 L7.5,1.25 Z M7.5,0 C4.75,0 2.5,2.25 2.5,5 C2.5,5.0625 2.5,5.125 2.5,5.1875 C1.0625,5.6875 0,7.0625 0,8.75 C0,10.8125 1.6875,12.5 3.75,12.5 L13.125,12.5 L13.125,12.4375 C15.5625,12.125 17.5,10 17.5,7.5 C17.5,4.75 15.25,2.5 12.5,2.5 C12.25,2.5 12.0625,2.5 11.875,2.5625 C11,1 9.375,0 7.5,0 L7.5,0 Z"
       id="path-17" />
    <path
       d="M7.5,1.25 C8.875,1.25 10.125,2 10.75,3.1875 L11.1875,3.9375 L12,3.8125 C12.1875,3.8125 12.375,3.75 12.5,3.75 C14.5625,3.75 16.25,5.4375 16.25,7.5 C16.25,9.375 14.8125,11 13,11.1875 L12.6875,11.25 L3.75,11.25 C2.375,11.25 1.25,10.125 1.25,8.75 C1.25,7.6875 1.9375,6.75 2.9375,6.375 L3.8125,6.0625 L3.75,5.1875 L3.75,5.0625 L3.75,5 C3.75,2.9375 5.4375,1.25 7.5,1.25 L7.5,1.25 Z M7.5,0 C4.75,0 2.5,2.25 2.5,5 C2.5,5.0625 2.5,5.125 2.5,5.1875 C1.0625,5.6875 0,7.0625 0,8.75 C0,10.8125 1.6875,12.5 3.75,12.5 L13.125,12.5 L13.125,12.4375 C15.5625,12.125 17.5,10 17.5,7.5 C17.5,4.75 15.25,2.5 12.5,2.5 C12.25,2.5 12.0625,2.5 11.875,2.5625 C11,1 9.375,0 7.5,0 L7.5,0 Z"
       id="path-19" />
    <path
       d="M7.5,1.25 C8.875,1.25 10.125,2 10.75,3.1875 L11.1875,3.9375 L12,3.8125 C12.1875,3.8125 12.375,3.75 12.5,3.75 C14.5625,3.75 16.25,5.4375 16.25,7.5 C16.25,9.375 14.8125,11 13,11.1875 L12.6875,11.25 L3.75,11.25 C2.375,11.25 1.25,10.125 1.25,8.75 C1.25,7.6875 1.9375,6.75 2.9375,6.375 L3.8125,6.0625 L3.75,5.1875 L3.75,5.0625 L3.75,5 C3.75,2.9375 5.4375,1.25 7.5,1.25 L7.5,1.25 Z M7.5,0 C4.75,0 2.5,2.25 2.5,5 C2.5,5.0625 2.5,5.125 2.5,5.1875 C1.0625,5.6875 0,7.0625 0,8.75 C0,10.8125 1.6875,12.5 3.75,12.5 L13.125,12.5 L13.125,12.4375 C15.5625,12.125 17.5,10 17.5,7.5 C17.5,4.75 15.25,2.5 12.5,2.5 C12.25,2.5 12.0625,2.5 11.875,2.5625 C11,1 9.375,0 7.5,0 L7.5,0 Z"
       id="path-21" />
    <path
       d="M7.5,1.25 C8.875,1.25 10.125,2 10.75,3.1875 L11.1875,3.9375 L12,3.8125 C12.1875,3.8125 12.375,3.75 12.5,3.75 C14.5625,3.75 16.25,5.4375 16.25,7.5 C16.25,9.375 14.8125,11 13,11.1875 L12.6875,11.25 L3.75,11.25 C2.375,11.25 1.25,10.125 1.25,8.75 C1.25,7.6875 1.9375,6.75 2.9375,6.375 L3.8125,6.0625 L3.75,5.1875 L3.75,5.0625 L3.75,5 C3.75,2.9375 5.4375,1.25 7.5,1.25 L7.5,1.25 Z M7.5,0 C4.75,0 2.5,2.25 2.5,5 C2.5,5.0625 2.5,5.125 2.5,5.1875 C1.0625,5.6875 0,7.0625 0,8.75 C0,10.8125 1.6875,12.5 3.75,12.5 L13.125,12.5 L13.125,12.4375 C15.5625,12.125 17.5,10 17.5,7.5 C17.5,4.75 15.25,2.5 12.5,2.5 C12.25,2.5 12.0625,2.5 11.875,2.5625 C11,1 9.375,0 7.5,0 L7.5,0 Z"
       id="path-23" />
    <rect
       id="path-25"
       x="0"
       y="0"
       width="381"
       height="50" />
    <filter
       x="-1.2%"
       y="-7.0%"
       width="102.4%"
       height="118.0%"
       filterUnits="objectBoundingBox"
       id="filter-26">
      <feMorphology
         radius="1"
         operator="dilate"
         in="SourceAlpha"
         result="shadowSpreadOuter1"
         id="feMorphology30" />
      <feOffset
         dx="0"
         dy="1"
         in="shadowSpreadOuter1"
         result="shadowOffsetOuter1"
         id="feOffset32" />
      <feGaussianBlur
         stdDeviation="1"
         in="shadowOffsetOuter1"
         result="shadowBlurOuter1"
         id="feGaussianBlur34" />
      <feComposite
         in="shadowBlurOuter1"
         in2="SourceAlpha"
         operator="out"
         result="shadowBlurOuter1"
         id="feComposite36" />
      <feColorMatrix
         values="0 0 0 0 0   0 0 0 0 0   0 0 0 0 0  0 0 0 0.1 0"
         type="matrix"
         in="shadowBlurOuter1"
         id="feColorMatrix38" />
    </filter>
    <path
       d="M12,2 C14.2,2 16.2,3.2 17.2,5.1 L17.9,6.3 L19.2,6.1 C19.5,6.1 19.8,6 20,6 C23.3,6 26,8.7 26,12 C26,15 23.7,17.6 20.8,17.9 L20.3,18 L6,18 C3.8,18 2,16.2 2,14 C2,12.3 3.1,10.8 4.7,10.2 L6.1,9.7 L6,8.3 L6,8.1 L6,8 C6,4.7 8.7,2 12,2 L12,2 Z M12,0 C7.6,0 4,3.6 4,8 C4,8.1 4,8.2 4,8.3 C1.7,9.1 0,11.3 0,14 C0,17.3 2.7,20 6,20 L21,20 L21,19.9 C24.9,19.4 28,16 28,12 C28,7.6 24.4,4 20,4 C19.6,4 19.3,4 19,4.1 C17.6,1.6 15,0 12,0 L12,0 Z"
       id="path-27" />
    <rect
       id="path-29"
       x="163"
       y="39"
       width="176"
       height="50" />
    <filter
       x="-2.6%"
       y="-7.0%"
       width="105.1%"
       height="118.0%"
       filterUnits="objectBoundingBox"
       id="filter-30">
      <feMorphology
         radius="1"
         operator="dilate"
         in="SourceAlpha"
         result="shadowSpreadOuter1"
         id="feMorphology43" />
      <feOffset
         dx="0"
         dy="1"
         in="shadowSpreadOuter1"
         result="shadowOffsetOuter1"
         id="feOffset45" />
      <feGaussianBlur
         stdDeviation="1"
         in="shadowOffsetOuter1"
         result="shadowBlurOuter1"
         id="feGaussianBlur47" />
      <feComposite
         in="shadowBlurOuter1"
         in2="SourceAlpha"
         operator="out"
         result="shadowBlurOuter1"
         id="feComposite49" />
      <feColorMatrix
         values="0 0 0 0 0   0 0 0 0 0   0 0 0 0 0  0 0 0 0.1 0"
         type="matrix"
         in="shadowBlurOuter1"
         id="feColorMatrix51" />
    </filter>
    <path
       d="M14,8.8817842e-16 C6.2680135,-4.4408921e-16 8.8817842e-16,6.2680135 0,14 C-8.8817842e-16,21.7319865 6.2680135,28 14,28 C21.7319865,28 28,21.7319865 28,14 C28,10.2869691 26.5250042,6.72601436 23.8994949,4.10050506 C21.2739856,1.47499577 17.7130309,4.4408921e-16 14,8.8817842e-16 Z M8,24.38 L8,22.38 C7.90310211,20.6210031 9.24193729,19.1125821 11,19 L17,19 C18.7621862,19.1125345 20.1026051,20.6272078 20,22.39 L20,24.39 C16.2927991,26.5544365 11.7072009,26.5544365 8,24.39 L8,24.38 Z M22,22.92 L22,22.31 C22.0621247,19.4719356 19.83667,17.1085026 17,17 L11,17 C8.16333004,17.1085026 5.93787529,19.4719356 6,22.31 L6,22.93 C2.29156128,19.6130716 1.01460169,14.3517373 2.78993169,9.70386301 C4.56526169,5.05598873 9.02460736,1.98572809 14,1.98572809 C18.9753926,1.98572809 23.4347383,5.05598873 25.2100683,9.70386301 C26.9853983,14.3517373 25.7084387,19.6130716 22,22.93 L22,22.92 Z M14,5 C11.2385763,5 9,7.23857625 9,10 C9,12.7614237 11.2385763,15 14,15 C16.7614237,15 19,12.7614237 19,10 C19,8.67391755 18.4732158,7.40214799 17.5355339,6.46446609 C16.597852,5.5267842 15.3260824,5 14,5 Z M14,13 C12.3431458,13 11,11.6568542 11,10 C11,8.34314575 12.3431458,7 14,7 C15.6568542,7 17,8.34314575 17,10 C17,10.7956495 16.6839295,11.5587112 16.1213203,12.1213203 C15.5587112,12.6839295 14.7956495,13 14,13 Z"
       id="path-31" />
  </defs>
  <g
     id="Page-1"
     stroke="none"
     stroke-width="1"
     fill="none"
     fill-rule="evenodd">
    <g
       id="CF"
       transform="translate(-55.000000, -58.000000)">
      <g
         id="g322"
         transform="translate(54.000000, 51.000000)">
        <text
           id="Organization-roles"
           font-family="IBMPlexSans-Italic, IBM Plex Sans"
           font-size="18"
           font-style="italic"
           font-weight="normal"
           fill="#13171A">
          <tspan
             x="1166"
             y="25"
             id="tspan57">Ruoli organizzazione</tspan>
        </text>
        <text
           id="Space-roles"
           font-family="IBMPlexSans-Italic, IBM Plex Sans"
           font-size="18"
           font-style="italic"
           font-weight="normal"
           fill="#13171A">
          <tspan
             x="1410"
             y="22"
             id="tspan60">Ruoli spazio</tspan>
        </text>
        <text
           id="Manager"
           font-family="IBMPlexSans, IBM Plex Sans"
           font-size="24"
           font-weight="normal"
           line-spacing="24"
           fill="#13171A">
          <tspan
             x="1210"
             y="71"
             id="tspan63">Gestore</tspan>
        </text>
        <g
           id="icon/status/checkmark/32"
           transform="translate(1166.000000, 44.000000)">
          <g
             id="checkmark"
             stroke-width="1"
             fill-rule="evenodd"
             transform="translate(2.000000, 2.000000)">
            <mask
               id="mask-2"
               fill="white">
              <use
                 xlink:href="#path-1"
                 id="use66" />
            </mask>
            <use
               id="Mask"
               fill="#000000"
               fill-rule="nonzero"
               xlink:href="#path-1" />
            <g
               id="color/green/50"
               mask="url(#mask-2)">
              <g
                 transform="translate(-2.000000, -2.000000)"
                 id="g70" />
            </g>
          </g>
          <rect
             id="transparent-rectangle"
             x="0"
             y="0"
             width="32"
             height="32" />
        </g>
        <text
           id="text78"
           font-family="IBMPlexSans, IBM Plex Sans"
           font-size="24"
           font-weight="normal"
           line-spacing="24"
           fill="#13171A">
          <tspan
             x="1454"
             y="71"
             id="tspan76">Gestore</tspan>
        </text>
        <g
           id="g93"
           transform="translate(1410.000000, 44.000000)">
          <g
             id="g89"
             stroke-width="1"
             fill-rule="evenodd"
             transform="translate(2.000000, 2.000000)">
            <mask
               id="mask-4"
               fill="white">
              <use
                 xlink:href="#path-3"
                 id="use80" />
            </mask>
            <use
               id="use83"
               fill="#000000"
               fill-rule="nonzero"
               xlink:href="#path-3" />
            <g
               id="g87"
               mask="url(#mask-4)">
              <g
                 transform="translate(-2.000000, -2.000000)"
                 id="g85" />
            </g>
          </g>
          <rect
             id="rect91"
             x="0"
             y="0"
             width="32"
             height="32" />
        </g>
        <text
           id="Billing-Manager"
           font-size="24"
           font-weight="normal"
           line-spacing="24"
           x="317.23318"
           transform="scale(0.87759425,1.1394787)"
           style="font-weight:normal;font-size:21.06226158px;font-family:IBMPlexSans, 'IBM Plex Sans';fill:#13171a;stroke-width:0.87759423">
          <tspan
             x="1379.1222"
             y="96.53537"
             id="tspan95"
             style="stroke-width:0.87759423">Gestore fatturazione</tspan>
        </text>
        <g
           id="g111"
           transform="translate(1166.000000, 83.000000)">
          <g
             id="g107"
             stroke-width="1"
             fill-rule="evenodd"
             transform="translate(2.000000, 2.000000)">
            <mask
               id="mask-6"
               fill="white">
              <use
                 xlink:href="#path-5"
                 id="use98" />
            </mask>
            <use
               id="use101"
               fill="#000000"
               fill-rule="nonzero"
               xlink:href="#path-5" />
            <g
               id="g105"
               mask="url(#mask-6)">
              <g
                 transform="translate(-2.000000, -2.000000)"
                 id="g103" />
            </g>
          </g>
          <rect
             id="rect109"
             x="0"
             y="0"
             width="32"
             height="32" />
        </g>
        <text
           id="Developer"
           font-size="24"
           font-weight="normal"
           line-spacing="24"
           x="515.61377"
           transform="scale(0.83844792,1.1926799)"
           style="font-weight:normal;font-size:20.12274933px;font-family:IBMPlexSans, 'IBM Plex Sans';fill:#13171a;stroke-width:0.83844793">
          <tspan
             x="1734.717"
             y="92.229271"
             id="tspan113"
             style="stroke-width:0.83844793">Sviluppatore</tspan>
        </text>
        <g
           id="g129"
           transform="translate(1410.000000, 83.000000)">
          <g
             id="g125"
             stroke-width="1"
             fill-rule="evenodd"
             transform="translate(2.000000, 2.000000)">
            <mask
               id="mask-8"
               fill="white">
              <use
                 xlink:href="#path-7"
                 id="use116" />
            </mask>
            <use
               id="use119"
               fill="#000000"
               fill-rule="nonzero"
               xlink:href="#path-7" />
            <g
               id="g123"
               mask="url(#mask-8)">
              <g
                 transform="translate(-2.000000, -2.000000)"
                 id="g121" />
            </g>
          </g>
          <rect
             id="rect127"
             x="0"
             y="0"
             width="32"
             height="32" />
        </g>
        <text
           id="Auditor"
           font-family="IBMPlexSans, IBM Plex Sans"
           font-size="24"
           font-weight="normal"
           line-spacing="24"
           fill="#13171A">
          <tspan
             x="1210"
             y="149"
             id="tspan131">Revisore</tspan>
        </text>
        <g
           id="g147"
           transform="translate(1166.000000, 122.000000)">
          <g
             id="g143"
             stroke-width="1"
             fill-rule="evenodd"
             transform="translate(2.000000, 2.000000)">
            <mask
               id="mask-10"
               fill="white">
              <use
                 xlink:href="#path-9"
                 id="use134" />
            </mask>
            <use
               id="use137"
               fill="#000000"
               fill-rule="nonzero"
               xlink:href="#path-9" />
            <g
               id="g141"
               mask="url(#mask-10)">
              <g
                 transform="translate(-2.000000, -2.000000)"
                 id="g139" />
            </g>
          </g>
          <rect
             id="rect145"
             x="0"
             y="0"
             width="32"
             height="32" />
        </g>
        <text
           id="text151"
           font-family="IBMPlexSans, IBM Plex Sans"
           font-size="24"
           font-weight="normal"
           line-spacing="24"
           fill="#13171A">
          <tspan
             x="1454"
             y="149"
             id="tspan149">Revisore</tspan>
        </text>
        <g
           id="g166"
           transform="translate(1410.000000, 122.000000)">
          <g
             id="g162"
             stroke-width="1"
             fill-rule="evenodd"
             transform="translate(2.000000, 2.000000)">
            <mask
               id="mask-12"
               fill="white">
              <use
                 xlink:href="#path-11"
                 id="use153" />
            </mask>
            <use
               id="use156"
               fill="#000000"
               fill-rule="nonzero"
               xlink:href="#path-11" />
            <g
               id="g160"
               mask="url(#mask-12)">
              <g
                 transform="translate(-2.000000, -2.000000)"
                 id="g158" />
            </g>
          </g>
          <rect
             id="rect164"
             x="0"
             y="0"
             width="32"
             height="32" />
        </g>
        <g
           id="Group-2"
           transform="translate(478.000000, 39.000000)">
          <g
             id="Active">
            <use
               fill="black"
               fill-opacity="1"
               filter="url(#filter-14)"
               xlink:href="#path-13"
               id="use168" />
            <rect
               stroke="#24A249"
               stroke-width="1"
               fill="#DAFBE4"
               fill-rule="evenodd"
               x="-0.5"
               y="-0.5"
               width="382"
               height="81"
               id="rect170" />
          </g>
          <text
             id="Cloud-Foundry-Organi"
             font-family="IBMPlexSans, IBM Plex Sans"
             font-size="24"
             font-weight="normal"
             fill="#13171A">
            <tspan
               x="16"
               y="33"
               id="tspan173">Organizzazione Cloud Foundry</tspan>
          </text>
          <g
             id="icon/image/cloud/20"
             transform="translate(17.000000, 47.000000)">
            <g
               id="Group">
              <g
                 id="cloud"
                 transform="translate(1.250000, 3.750000)">
                <mask
                   id="mask-16"
                   fill="white">
                  <use
                     xlink:href="#path-15"
                     id="use176" />
                </mask>
                <use
                   id="use179"
                   fill="#000000"
                   fill-rule="nonzero"
                   xlink:href="#path-15" />
                <g
                   id="color/black"
                   mask="url(#mask-16)">
                  <g
                     transform="translate(-1.250000, -3.750000)"
                     id="g181" />
                </g>
              </g>
              <rect
                 id="rect185"
                 x="0"
                 y="0"
                 width="20"
                 height="20" />
            </g>
          </g>
          <g
             id="g204"
             transform="translate(43.000000, 47.000000)">
            <g
               id="g202">
              <g
                 id="g198"
                 transform="translate(1.250000, 3.750000)">
                <mask
                   id="mask-18"
                   fill="white">
                  <use
                     xlink:href="#path-17"
                     id="use189" />
                </mask>
                <use
                   id="use192"
                   fill="#000000"
                   fill-rule="nonzero"
                   xlink:href="#path-17" />
                <g
                   id="g196"
                   mask="url(#mask-18)">
                  <g
                     transform="translate(-1.250000, -3.750000)"
                     id="g194" />
                </g>
              </g>
              <rect
                 id="rect200"
                 x="0"
                 y="0"
                 width="20"
                 height="20" />
            </g>
          </g>
          <g
             id="g221"
             transform="translate(68.000000, 47.000000)">
            <g
               id="g219">
              <g
                 id="g215"
                 transform="translate(1.250000, 3.750000)">
                <mask
                   id="mask-20"
                   fill="white">
                  <use
                     xlink:href="#path-19"
                     id="use206" />
                </mask>
                <use
                   id="use209"
                   fill="#000000"
                   fill-rule="nonzero"
                   xlink:href="#path-19" />
                <g
                   id="g213"
                   mask="url(#mask-20)">
                  <g
                     transform="translate(-1.250000, -3.750000)"
                     id="g211" />
                </g>
              </g>
              <rect
                 id="rect217"
                 x="0"
                 y="0"
                 width="20"
                 height="20" />
            </g>
          </g>
          <g
             id="g238"
             transform="translate(94.000000, 47.000000)">
            <g
               id="g236">
              <g
                 id="g232"
                 transform="translate(1.250000, 3.750000)">
                <mask
                   id="mask-22"
                   fill="white">
                  <use
                     xlink:href="#path-21"
                     id="use223" />
                </mask>
                <use
                   id="use226"
                   fill="#000000"
                   fill-rule="nonzero"
                   xlink:href="#path-21" />
                <g
                   id="g230"
                   mask="url(#mask-22)">
                  <g
                     transform="translate(-1.250000, -3.750000)"
                     id="g228" />
                </g>
              </g>
              <rect
                 id="rect234"
                 x="0"
                 y="0"
                 width="20"
                 height="20" />
            </g>
          </g>
          <g
             id="g255"
             transform="translate(119.000000, 47.000000)">
            <g
               id="g253">
              <g
                 id="g249"
                 transform="translate(1.250000, 3.750000)">
                <mask
                   id="mask-24"
                   fill="white">
                  <use
                     xlink:href="#path-23"
                     id="use240" />
                </mask>
                <use
                   id="use243"
                   fill="#000000"
                   fill-rule="nonzero"
                   xlink:href="#path-23" />
                <g
                   id="g247"
                   mask="url(#mask-24)">
                  <g
                     transform="translate(-1.250000, -3.750000)"
                     id="g245" />
                </g>
              </g>
              <rect
                 id="rect251"
                 x="0"
                 y="0"
                 width="20"
                 height="20" />
            </g>
          </g>
        </g>
        <g
           id="g283"
           transform="translate(478.000000, 126.000000)">
          <g
             id="g262">
            <use
               fill="black"
               fill-opacity="1"
               filter="url(#filter-26)"
               xlink:href="#path-25"
               id="use258" />
            <rect
               stroke="#24A249"
               stroke-width="1"
               fill="#DAFBE4"
               fill-rule="evenodd"
               x="-0.5"
               y="-0.5"
               width="382"
               height="51"
               id="rect260" />
          </g>
          <g
             id="icon/image/cloud/32"
             transform="translate(11.000000, 9.000000)">
            <g
               id="g277">
              <g
                 id="g273"
                 transform="translate(2.000000, 6.000000)">
                <mask
                   id="mask-28"
                   fill="white">
                  <use
                     xlink:href="#path-27"
                     id="use264" />
                </mask>
                <use
                   id="use267"
                   fill="#000000"
                   fill-rule="nonzero"
                   xlink:href="#path-27" />
                <g
                   id="g271"
                   mask="url(#mask-28)">
                  <g
                     transform="translate(-2.000000, -6.000000)"
                     id="g269" />
                </g>
              </g>
              <rect
                 id="rect275"
                 x="0"
                 y="0"
                 width="32"
                 height="32" />
            </g>
          </g>
          <text
             id="Cloud-Foundry-Space"
             font-family="IBMPlexSans, IBM Plex Sans"
             font-size="24"
             font-weight="normal"
             fill="#13171A">
            <tspan
               x="49"
               y="33"
               id="tspan280">Spazio Cloud Foundry</tspan>
          </text>
        </g>
        <g
           id="g289">
          <use
             fill="black"
             fill-opacity="1"
             filter="url(#filter-30)"
             xlink:href="#path-29"
             id="use285" />
          <rect
             stroke="#24A249"
             stroke-width="1"
             fill="#DAFBE4"
             fill-rule="evenodd"
             x="162.5"
             y="38.5"
             width="177"
             height="51"
             id="rect287" />
        </g>
        <text
           id="access-to"
           font-size="24"
           font-weight="400"
           x="-8"
           style="font-weight:400;font-size:24px;font-family:IBMPlexSans-Medium, 'IBM Plex Sans';fill:#13171a">
          <tspan
             x="352"
             y="25"
             id="tspan291">accesso a</tspan>
        </text>
        <text
           id="with-specific-permis"
           font-size="24"
           font-weight="400"
           x="-84"
           style="font-weight:400;font-size:24px;font-family:IBMPlexSans-Medium, 'IBM Plex Sans';fill:#13171a">
          <tspan
             x="794"
             y="25"
             id="tspan294">con autorizzazioni specifiche</tspan>
        </text>
        <g
           id="icon/user/avatar/32"
           transform="translate(174.000000, 48.000000)">
          <g
             id="user--avatar"
             stroke-width="1"
             fill-rule="evenodd"
             transform="translate(2.000000, 2.000000)">
            <mask
               id="mask-32"
               fill="white">
              <use
                 xlink:href="#path-31"
                 id="use297" />
            </mask>
            <use
               id="use300"
               fill="#000000"
               fill-rule="nonzero"
               xlink:href="#path-31" />
            <g
               id="g304"
               mask="url(#mask-32)">
              <g
                 transform="translate(-2.000000, -2.000000)"
                 id="g302" />
            </g>
          </g>
          <rect
             id="rect307"
             x="0"
             y="0"
             width="32"
             height="32" />
        </g>
        <text
           id="User"
           font-family="IBMPlexSans, IBM Plex Sans"
           font-size="24"
           font-weight="normal"
           fill="#13171A">
          <tspan
             x="212"
             y="72"
             id="tspan310">Utente</tspan>
        </text>
        <text
           id="I-want-to-give"
           font-family="IBMPlexSans-Medium, IBM Plex Sans"
           font-size="24"
           font-weight="400"
           fill="#13171A">
          <tspan
             x="0"
             y="25"
             id="tspan313">Voglio fornire</tspan>
        </text>
        <text
           id="Subject"
           font-size="18"
           font-style="italic"
           font-weight="normal"
           x="4"
           style="font-style:italic;font-weight:normal;font-size:18px;font-family:IBMPlexSans-Italic, 'IBM Plex Sans';fill:#13171a">
          <tspan
             x="167"
             y="24"
             id="tspan316">Oggetto</tspan>
        </text>
        <text
           id="Target"
           font-family="IBMPlexSans-Italic, IBM Plex Sans"
           font-size="18"
           font-style="italic"
           font-weight="normal"
           fill="#13171A">
          <tspan
             x="478"
             y="24"
             id="tspan319">Destinazione</tspan>
        </text>
      </g>
    </g>
  </g>
</svg>
