<?xml version="1.0" encoding="UTF-8" standalone="no"?>
<svg
   xmlns:dc="http://purl.org/dc/elements/1.1/"
   xmlns:cc="http://creativecommons.org/ns#"
   xmlns:rdf="http://www.w3.org/1999/02/22-rdf-syntax-ns#"
   xmlns:svg="http://www.w3.org/2000/svg"
   xmlns="http://www.w3.org/2000/svg"
   xmlns:xlink="http://www.w3.org/1999/xlink"
   xmlns:sodipodi="http://sodipodi.sourceforge.net/DTD/sodipodi-0.dtd"
   xmlns:inkscape="http://www.inkscape.org/namespaces/inkscape"
   width="1451px"
   height="172px"
   viewBox="0 0 1451 172"
   version="1.1"
   id="svg280"
   sodipodi:docname="ClassicIaaS.svg"
   inkscape:version="0.92.3 (2405546, 2018-03-11)">
  <metadata
     id="metadata284">
    <rdf:RDF>
      <cc:Work
         rdf:about="">
        <dc:format>image/svg+xml</dc:format>
        <dc:type
           rdf:resource="http://purl.org/dc/dcmitype/StillImage" />
      </cc:Work>
    </rdf:RDF>
  </metadata>
  <sodipodi:namedview
     pagecolor="#ffffff"
     bordercolor="#666666"
     borderopacity="1"
     objecttolerance="10"
     gridtolerance="10"
     guidetolerance="10"
     inkscape:pageopacity="0"
     inkscape:pageshadow="2"
     inkscape:window-width="1920"
     inkscape:window-height="1001"
     id="namedview282"
     showgrid="false"
     inkscape:zoom="0.865487"
     inkscape:cx="722.11622"
     inkscape:cy="122.2949"
     inkscape:window-x="-9"
     inkscape:window-y="51"
     inkscape:window-maximized="1"
     inkscape:current-layer="svg280" />
  <!-- Generator: Sketch 53.2 (72643) - https://sketchapp.com -->
  <title
     id="title2">Group 3</title>
  <desc
     id="desc4">Created with Sketch.</desc>
  <defs
     id="defs47">
    <path
       d="M16.5,0 L1.5,0 C0.671572875,0 0,0.671572875 0,1.5 L0,16.5 C0,17.3284271 0.671572875,18 1.5,18 L16.5,18 C17.3284271,18 18,17.3284271 18,16.5 L18,1.5 C18,0.671572875 17.3284271,0 16.5,0 Z M1.5,16.5 L1.5,1.5 L16.5,1.5 L16.5,16.5 L1.5,16.5 Z M14.25,6.3075 L13.1925,5.25 L7.5,10.95 L4.8075,8.25 L3.75,9.315 L7.5,13.065 L14.25,6.3075 Z"
       id="path-1" />
    <path
       d="M16.5,0 L1.5,0 C0.671572875,0 0,0.671572875 0,1.5 L0,16.5 C0,17.3284271 0.671572875,18 1.5,18 L16.5,18 C17.3284271,18 18,17.3284271 18,16.5 L18,1.5 C18,0.671572875 17.3284271,0 16.5,0 Z M1.5,16.5 L1.5,1.5 L16.5,1.5 L16.5,16.5 L1.5,16.5 Z M14.25,6.3075 L13.1925,5.25 L7.5,10.95 L4.8075,8.25 L3.75,9.315 L7.5,13.065 L14.25,6.3075 Z"
       id="path-3" />
    <path
       d="M16.5,0 L1.5,0 C0.671572875,0 0,0.671572875 0,1.5 L0,16.5 C0,17.3284271 0.671572875,18 1.5,18 L16.5,18 C17.3284271,18 18,17.3284271 18,16.5 L18,1.5 C18,0.671572875 17.3284271,0 16.5,0 Z M1.5,16.5 L1.5,1.5 L16.5,1.5 L16.5,16.5 L1.5,16.5 Z M14.25,6.3075 L13.1925,5.25 L7.5,10.95 L4.8075,8.25 L3.75,9.315 L7.5,13.065 L14.25,6.3075 Z"
       id="path-5" />
    <path
       d="M16.5,0 L1.5,0 C0.671572875,0 0,0.671572875 0,1.5 L0,16.5 C0,17.3284271 0.671572875,18 1.5,18 L16.5,18 C17.3284271,18 18,17.3284271 18,16.5 L18,1.5 C18,0.671572875 17.3284271,0 16.5,0 Z M1.5,16.5 L1.5,1.5 L16.5,1.5 L16.5,16.5 L1.5,16.5 Z M14.25,6.3075 L13.1925,5.25 L7.5,10.95 L4.8075,8.25 L3.75,9.315 L7.5,13.065 L14.25,6.3075 Z"
       id="path-7" />
    <rect
       id="path-9"
       x="0"
       y="0"
       width="381"
       height="80" />
    <filter
       x="-1.2%"
       y="-4.4%"
       width="102.4%"
       height="111.2%"
       filterUnits="objectBoundingBox"
       id="filter-10">
      <feMorphology
         radius="1"
         operator="dilate"
         in="SourceAlpha"
         result="shadowSpreadOuter1"
         id="feMorphology11" />
      <feOffset
         dx="0"
         dy="1"
         in="shadowSpreadOuter1"
         result="shadowOffsetOuter1"
         id="feOffset13" />
      <feGaussianBlur
         stdDeviation="1"
         in="shadowOffsetOuter1"
         result="shadowBlurOuter1"
         id="feGaussianBlur15" />
      <feComposite
         in="shadowBlurOuter1"
         in2="SourceAlpha"
         operator="out"
         result="shadowBlurOuter1"
         id="feComposite17" />
      <feColorMatrix
         values="0 0 0 0 0   0 0 0 0 0   0 0 0 0 0  0 0 0 0.1 0"
         type="matrix"
         in="shadowBlurOuter1"
         id="feColorMatrix19" />
    </filter>
    <rect
       id="path-11"
       x="0"
       y="0"
       width="381"
       height="50" />
    <filter
       x="-1.2%"
       y="-7.0%"
       width="102.4%"
       height="118.0%"
       filterUnits="objectBoundingBox"
       id="filter-12">
      <feMorphology
         radius="1"
         operator="dilate"
         in="SourceAlpha"
         result="shadowSpreadOuter1"
         id="feMorphology23" />
      <feOffset
         dx="0"
         dy="1"
         in="shadowSpreadOuter1"
         result="shadowOffsetOuter1"
         id="feOffset25" />
      <feGaussianBlur
         stdDeviation="1"
         in="shadowOffsetOuter1"
         result="shadowBlurOuter1"
         id="feGaussianBlur27" />
      <feComposite
         in="shadowBlurOuter1"
         in2="SourceAlpha"
         operator="out"
         result="shadowBlurOuter1"
         id="feComposite29" />
      <feColorMatrix
         values="0 0 0 0 0   0 0 0 0 0   0 0 0 0 0  0 0 0 0.1 0"
         type="matrix"
         in="shadowBlurOuter1"
         id="feColorMatrix31" />
    </filter>
    <rect
       id="path-13"
       x="163"
       y="39"
       width="176"
       height="50" />
    <filter
       x="-2.6%"
       y="-7.0%"
       width="105.1%"
       height="118.0%"
       filterUnits="objectBoundingBox"
       id="filter-14">
      <feMorphology
         radius="1"
         operator="dilate"
         in="SourceAlpha"
         result="shadowSpreadOuter1"
         id="feMorphology35" />
      <feOffset
         dx="0"
         dy="1"
         in="shadowSpreadOuter1"
         result="shadowOffsetOuter1"
         id="feOffset37" />
      <feGaussianBlur
         stdDeviation="1"
         in="shadowOffsetOuter1"
         result="shadowBlurOuter1"
         id="feGaussianBlur39" />
      <feComposite
         in="shadowBlurOuter1"
         in2="SourceAlpha"
         operator="out"
         result="shadowBlurOuter1"
         id="feComposite41" />
      <feColorMatrix
         values="0 0 0 0 0   0 0 0 0 0   0 0 0 0 0  0 0 0 0.1 0"
         type="matrix"
         in="shadowBlurOuter1"
         id="feColorMatrix43" />
    </filter>
    <path
       d="M14,8.8817842e-16 C6.2680135,-4.4408921e-16 8.8817842e-16,6.2680135 0,14 C-8.8817842e-16,21.7319865 6.2680135,28 14,28 C21.7319865,28 28,21.7319865 28,14 C28,10.2869691 26.5250042,6.72601436 23.8994949,4.10050506 C21.2739856,1.47499577 17.7130309,4.4408921e-16 14,8.8817842e-16 Z M8,24.38 L8,22.38 C7.90310211,20.6210031 9.24193729,19.1125821 11,19 L17,19 C18.7621862,19.1125345 20.1026051,20.6272078 20,22.39 L20,24.39 C16.2927991,26.5544365 11.7072009,26.5544365 8,24.39 L8,24.38 Z M22,22.92 L22,22.31 C22.0621247,19.4719356 19.83667,17.1085026 17,17 L11,17 C8.16333004,17.1085026 5.93787529,19.4719356 6,22.31 L6,22.93 C2.29156128,19.6130716 1.01460169,14.3517373 2.78993169,9.70386301 C4.56526169,5.05598873 9.02460736,1.98572809 14,1.98572809 C18.9753926,1.98572809 23.4347383,5.05598873 25.2100683,9.70386301 C26.9853983,14.3517373 25.7084387,19.6130716 22,22.93 L22,22.92 Z M14,5 C11.2385763,5 9,7.23857625 9,10 C9,12.7614237 11.2385763,15 14,15 C16.7614237,15 19,12.7614237 19,10 C19,8.67391755 18.4732158,7.40214799 17.5355339,6.46446609 C16.597852,5.5267842 15.3260824,5 14,5 Z M14,13 C12.3431458,13 11,11.6568542 11,10 C11,8.34314575 12.3431458,7 14,7 C15.6568542,7 17,8.34314575 17,10 C17,10.7956495 16.6839295,11.5587112 16.1213203,12.1213203 C15.5587112,12.6839295 14.7956495,13 14,13 Z"
       id="path-15" />
  </defs>
  <g
     id="Page-1"
     transform="matrix(0.96076135,0,0,1,0.16009403,0)"
     style="fill:none;fill-rule:evenodd;stroke:none;stroke-width:1">
    <g
       id="ClassicIaaS"
       transform="translate(-55,-58)">
      <g
         id="Group-3"
         transform="translate(54,51)">
        <text
           id="Custom-permissions"
           font-size="18"
           font-style="italic"
           font-weight="normal"
           style="font-style:italic;font-weight:normal;font-size:18px;font-family:IBMPlexSans-Italic, 'IBM Plex Sans';fill:#13171a">
          <tspan
             x="1170"
             y="24"
             id="tspan49">Droits personnalisés</tspan>
        </text>
        <g
           id="icon-default"
           transform="translate(1334,82)">
          <g
             id="check--box--unchecked"
             transform="translate(3,3)">
            <mask
               id="mask-2"
               fill="white">
              <use
                 xlink:href="#path-1"
                 id="use52"
                 x="0"
                 y="0"
                 width="100%"
                 height="100%" />
            </mask>
            <use
               id="Mask"
               xlink:href="#path-1"
               style="fill:#000000;fill-rule:nonzero"
               x="0"
               y="0"
               width="100%"
               height="100%" />
            <g
               id="color/purple/60"
               mask="url(#mask-2)">
              <g
                 transform="translate(-3,-3)"
                 id="g56" />
            </g>
          </g>
          <rect
             id="transparent-rectangle"
             x="0"
             y="0"
             width="24"
             height="24" />
        </g>
        <g
           id="label-default"
           transform="translate(1362,81)"
           font-size="24"
           font-weight="normal"
           line-spacing="24"
           style="font-weight:normal;font-size:24px;font-family:IBMPlexSans, 'IBM Plex Sans';fill:#13171a">
          <g
             id="component-default-text-––-B-tight">
            <text
               id="B-tight-—-Body-copy"
               style="font-style:normal;font-variant:normal;font-weight:normal;font-stretch:normal;font-size:21.33333397px;font-family:IBMPlexSans, 'IBM Plex Sans';-inkscape-font-specification:'IBMPlexSans, IBM Plex Sans, Normal';font-variant-ligatures:normal;font-variant-caps:normal;font-variant-numeric:normal;font-feature-settings:normal;text-align:start;writing-mode:lr-tb;text-anchor:start">
              <tspan
                 x="0"
                 y="25"
                 id="tspan62"
                 style="font-style:normal;font-variant:normal;font-weight:normal;font-stretch:normal;font-size:21.33333397px;font-family:IBMPlexSans, 'IBM Plex Sans';-inkscape-font-specification:'IBMPlexSans, IBM Plex Sans, Normal';font-variant-ligatures:normal;font-variant-caps:normal;font-variant-numeric:normal;font-feature-settings:normal;text-align:start;writing-mode:lr-tb;text-anchor:start">Services</tspan>
            </text>
          </g>
        </g>
        <g
           id="g80"
           transform="translate(1334,46)">
          <g
             id="g76"
             transform="translate(3,3)">
            <mask
               id="mask-4"
               fill="white">
              <use
                 xlink:href="#path-3"
                 id="use67"
                 x="0"
                 y="0"
                 width="100%"
                 height="100%" />
            </mask>
            <use
               id="use70"
               xlink:href="#path-3"
               style="fill:#000000;fill-rule:nonzero"
               x="0"
               y="0"
               width="100%"
               height="100%" />
            <g
               id="g74"
               mask="url(#mask-4)">
              <g
                 transform="translate(-3,-3)"
                 id="g72" />
            </g>
          </g>
          <rect
             id="rect78"
             x="0"
             y="0"
             width="24"
             height="24" />
        </g>
        <g
           id="g88"
           transform="translate(1362,45)"
           font-size="24"
           font-weight="normal"
           line-spacing="24"
           style="font-weight:normal;font-size:24px;font-family:IBMPlexSans, 'IBM Plex Sans';fill:#13171a">
          <g
             id="g86">
            <text
               id="text84"
               style="font-style:normal;font-variant:normal;font-weight:normal;font-stretch:normal;font-size:21.33333397px;font-family:IBMPlexSans, 'IBM Plex Sans';-inkscape-font-specification:'IBMPlexSans, IBM Plex Sans, Normal';font-variant-ligatures:normal;font-variant-caps:normal;font-variant-numeric:normal;font-feature-settings:normal;text-align:start;writing-mode:lr-tb;text-anchor:start">
              <tspan
                 x="0"
                 y="25"
                 id="tspan82"
                 style="font-style:normal;font-variant:normal;font-weight:normal;font-stretch:normal;font-size:21.33333397px;font-family:IBMPlexSans, 'IBM Plex Sans';-inkscape-font-specification:'IBMPlexSans, IBM Plex Sans, Normal';font-variant-ligatures:normal;font-variant-caps:normal;font-variant-numeric:normal;font-feature-settings:normal;text-align:start;writing-mode:lr-tb;text-anchor:start">Périphériques</tspan>
            </text>
          </g>
        </g>
        <g
           id="g103"
           transform="translate(1170,82)">
          <g
             id="g99"
             transform="translate(3,3)">
            <mask
               id="mask-6"
               fill="white">
              <use
                 xlink:href="#path-5"
                 id="use90"
                 x="0"
                 y="0"
                 width="100%"
                 height="100%" />
            </mask>
            <use
               id="use93"
               xlink:href="#path-5"
               style="fill:#000000;fill-rule:nonzero"
               x="0"
               y="0"
               width="100%"
               height="100%" />
            <g
               id="g97"
               mask="url(#mask-6)">
              <g
                 transform="translate(-3,-3)"
                 id="g95" />
            </g>
          </g>
          <rect
             id="rect101"
             x="0"
             y="0"
             width="24"
             height="24" />
        </g>
        <g
           id="g111"
           transform="translate(1198,81)"
           font-size="24"
           font-weight="normal"
           line-spacing="24"
           style="font-weight:normal;font-size:24px;font-family:IBMPlexSans, 'IBM Plex Sans';fill:#13171a">
          <g
             id="g109">
            <text
               id="text107">
              <tspan
                 x="0"
                 y="25"
                 id="tspan105"
                 style="font-style:normal;font-variant:normal;font-weight:normal;font-stretch:normal;font-size:21.33333397px;font-family:IBMPlexSans, 'IBM Plex Sans';-inkscape-font-specification:'IBMPlexSans, IBM Plex Sans, Normal';font-variant-ligatures:normal;font-variant-caps:normal;font-variant-numeric:normal;font-feature-settings:normal;text-align:start;writing-mode:lr-tb;text-anchor:start">Réseau</tspan>
            </text>
          </g>
        </g>
        <g
           id="g126"
           transform="translate(1170,46)">
          <g
             id="g122"
             transform="translate(3,3)">
            <mask
               id="mask-8"
               fill="white">
              <use
                 xlink:href="#path-7"
                 id="use113"
                 x="0"
                 y="0"
                 width="100%"
                 height="100%" />
            </mask>
            <use
               id="use116"
               xlink:href="#path-7"
               style="fill:#000000;fill-rule:nonzero"
               x="0"
               y="0"
               width="100%"
               height="100%" />
            <g
               id="g120"
               mask="url(#mask-8)">
              <g
                 transform="translate(-3,-3)"
                 id="g118" />
            </g>
          </g>
          <rect
             id="rect124"
             x="0"
             y="0"
             width="24"
             height="24" />
        </g>
        <g
           id="g134"
           transform="translate(1198,45)"
           font-size="24"
           font-weight="normal"
           line-spacing="24"
           style="font-weight:normal;font-size:24px;font-family:IBMPlexSans, 'IBM Plex Sans';fill:#13171a">
          <g
             id="g132">
            <text
               id="text130"
               style="font-style:normal;font-variant:normal;font-weight:normal;font-stretch:normal;font-size:21.33333397px;font-family:IBMPlexSans, 'IBM Plex Sans';-inkscape-font-specification:'IBMPlexSans, IBM Plex Sans, Normal';font-variant-ligatures:normal;font-variant-caps:normal;font-variant-numeric:normal;font-feature-settings:normal;text-align:start;writing-mode:lr-tb;text-anchor:start">
              <tspan
                 x="0"
                 y="25"
                 id="tspan128"
                 style="font-style:normal;font-variant:normal;font-weight:normal;font-stretch:normal;font-size:21.33333397px;font-family:IBMPlexSans, 'IBM Plex Sans';-inkscape-font-specification:'IBMPlexSans, IBM Plex Sans, Normal';font-variant-ligatures:normal;font-variant-caps:normal;font-variant-numeric:normal;font-feature-settings:normal;text-align:start;writing-mode:lr-tb;text-anchor:start">Compte</tspan>
            </text>
          </g>
        </g>
        <g
           id="Group-2"
           transform="translate(478,39)">
          <g
             id="Active">
            <use
               xlink:href="#path-9"
               id="use136"
               style="fill:#000000;fill-opacity:1;filter:url(#filter-10)"
               x="0"
               y="0"
               width="100%"
               height="100%" />
            <rect
               x="-0.5"
               y="-0.5"
               width="382"
               height="81"
               id="rect138"
               style="fill:#f7f1ff;fill-rule:evenodd;stroke:#a970ff;stroke-width:1" />
          </g>
          <text
             id="Classic-Infrastructu"
             font-size="24"
             font-weight="normal"
             style="font-style:normal;font-variant:normal;font-weight:normal;font-stretch:normal;font-size:21.33333397px;font-family:IBMPlexSans, 'IBM Plex Sans';-inkscape-font-specification:'IBMPlexSans, IBM Plex Sans, Normal';font-variant-ligatures:normal;font-variant-caps:normal;font-variant-numeric:normal;font-feature-settings:normal;text-align:start;writing-mode:lr-tb;text-anchor:start;fill:#13171a">
            <tspan
               x="16"
               y="33"
               id="tspan141"
               style="font-style:normal;font-variant:normal;font-weight:normal;font-stretch:normal;font-size:21.33333397px;font-family:IBMPlexSans, 'IBM Plex Sans';-inkscape-font-specification:'IBMPlexSans, IBM Plex Sans, Normal';font-variant-ligatures:normal;font-variant-caps:normal;font-variant-numeric:normal;font-feature-settings:normal;text-align:start;writing-mode:lr-tb;text-anchor:start">Service d'infrastructure classique</tspan>
          </text>
        </g>
        <g
           id="g167"
           transform="translate(478,125)">
          <g
             id="g149">
            <use
               xlink:href="#path-11"
               id="use145"
               style="fill:#000000;fill-opacity:1;filter:url(#filter-12)"
               x="0"
               y="0"
               width="100%"
               height="100%" />
            <rect
               x="-0.5"
               y="-0.5"
               width="382"
               height="51"
               id="rect147"
               style="fill:#f7f1ff;fill-rule:evenodd;stroke:#a970ff;stroke-width:1" />
          </g>
          <text
             id="text153"
             font-size="24"
             font-weight="normal"
             style="font-style:normal;font-variant:normal;font-weight:normal;font-stretch:normal;font-size:21.33333397px;font-family:IBMPlexSans, 'IBM Plex Sans';-inkscape-font-specification:'IBMPlexSans, IBM Plex Sans, Normal';font-variant-ligatures:normal;font-variant-caps:normal;font-variant-numeric:normal;font-feature-settings:normal;text-align:start;writing-mode:lr-tb;text-anchor:start;fill:#13171a"
             x="50.838428"
             y="17.331284">
            <tspan
               sodipodi:role="line"
               id="tspan292"
               x="50.838428"
               y="17.331284">Périphérique d'infrastructure</tspan>
            <tspan
               sodipodi:role="line"
               id="tspan294"
               x="50.838428"
               y="43.997952">classique</tspan>
          </text>
          <g
             id="Group"
             transform="translate(16,15)"
             style="fill:#13171a">
            <path
               d="m 18.398437,1.234375 c 0.828428,0 1.5,0.6715729 1.5,1.5 0,0.8284271 -0.671572,1.5 -1.5,1.5 H 3.3984375 c -0.8284271,0 -1.5,-0.6715729 -1.5,-1.5 0,-0.8284271 0.6715729,-1.5 1.5,-1.5 H 18.398437 Z m 0,-1 H 3.3984375 c -1.3807119,0 -2.5,1.1192881 -2.5,2.5 0,1.3807119 1.1192881,2.5 2.5,2.5 H 18.398437 c 1.380712,0 2.5,-1.1192881 2.5,-2.5 0,-1.3807119 -1.119288,-2.5 -2.5,-2.5 v 0 z"
               id="Shape"
               inkscape:connector-curvature="0" />
            <path
               d="m 18.398437,8.234375 c 0.828428,0 1.5,0.6715729 1.5,1.5 0,0.828427 -0.671572,1.5 -1.5,1.5 H 3.3984375 c -0.8284271,0 -1.5,-0.671573 -1.5,-1.5 0,-0.8284271 0.6715729,-1.5 1.5,-1.5 H 18.398437 Z m 0,-1 H 3.3984375 C 2.7284073,7.2342892 2.0863847,7.5031651 1.6163767,7.9806931 1.1463688,8.4582212 0.88771701,9.1044306 0.8984375,9.774375 v 0 c 0.0218438,1.365066 1.1347594,2.460175 2.5,2.46 H 18.398437 c 1.365241,1.75e-4 2.478157,-1.094934 2.5,-2.46 v 0 C 20.909158,9.1044306 20.650506,8.4582212 20.180498,7.9806931 19.71049,7.5031651 19.068468,7.2342892 18.398437,7.234375 v 0 z"
               id="path156"
               inkscape:connector-curvature="0" />
            <path
               d="m 18.398437,15.234375 c 0.828428,0 1.5,0.671573 1.5,1.5 0,0.828427 -0.671572,1.5 -1.5,1.5 H 3.3984375 c -0.8284271,0 -1.5,-0.671573 -1.5,-1.5 0,-0.828427 0.6715729,-1.5 1.5,-1.5 H 18.398437 Z m 0,-1 H 3.3984375 c -1.3807119,0 -2.5,1.119288 -2.5,2.5 0,1.380712 1.1192881,2.5 2.5,2.5 H 18.398437 c 1.380712,0 2.5,-1.119288 2.5,-2.5 0,-1.380712 -1.119288,-2.5 -2.5,-2.5 v 0 z"
               id="path158"
               inkscape:connector-curvature="0" />
            <path
               d="M 17.408438,3.234375 H 4.4084375 c -0.2761424,0 -0.5,-0.2238576 -0.5,-0.5 0,-0.2761424 0.2238576,-0.5 0.5,-0.5 H 17.408438 c 0.276142,0 0.5,0.2238576 0.5,0.5 0,0.2761424 -0.223858,0.5 -0.5,0.5 z"
               id="path160"
               inkscape:connector-curvature="0" />
            <path
               d="M 17.408438,10.234375 H 4.4084375 c -0.2761424,0 -0.5,-0.223858 -0.5,-0.5 0,-0.2761424 0.2238576,-0.5 0.5,-0.5 H 17.408438 c 0.276142,0 0.5,0.2238576 0.5,0.5 0,0.276142 -0.223858,0.5 -0.5,0.5 z"
               id="path162"
               inkscape:connector-curvature="0" />
            <path
               d="M 17.408438,17.234375 H 4.4084375 c -0.2761424,0 -0.5,-0.223858 -0.5,-0.5 0,-0.276142 0.2238576,-0.5 0.5,-0.5 H 17.408438 c 0.276142,0 0.5,0.223858 0.5,0.5 0,0.276142 -0.223858,0.5 -0.5,0.5 z"
               id="path164"
               inkscape:connector-curvature="0" />
          </g>
        </g>
        <g
           id="g173">
          <use
             xlink:href="#path-13"
             id="use169"
             style="fill:#000000;fill-opacity:1;filter:url(#filter-14)"
             x="0"
             y="0"
             width="100%"
             height="100%" />
          <rect
             x="162.5"
             y="38.5"
             width="177"
             height="51"
             id="rect171"
             style="fill:#f7f1ff;fill-rule:evenodd;stroke:#a970ff;stroke-width:1" />
        </g>
        <g
           id="icon/user/avatar/32"
           transform="translate(174,48)">
          <g
             id="user--avatar"
             transform="translate(2,2)"
             style="fill-rule:evenodd;stroke-width:1">
            <mask
               id="mask-16"
               fill="white">
              <use
                 xlink:href="#path-15"
                 id="use175"
                 x="0"
                 y="0"
                 width="100%"
                 height="100%" />
            </mask>
            <use
               id="use178"
               xlink:href="#path-15"
               style="fill:#000000;fill-rule:nonzero"
               x="0"
               y="0"
               width="100%"
               height="100%" />
            <g
               id="color/black"
               mask="url(#mask-16)">
              <g
                 transform="translate(-2,-2)"
                 id="g180" />
            </g>
          </g>
          <rect
             id="rect184"
             x="0"
             y="0"
             width="32"
             height="32" />
        </g>
        <text
           id="User"
           font-size="24"
           font-weight="normal"
           style="font-weight:normal;font-size:24px;font-family:IBMPlexSans, 'IBM Plex Sans';fill:#13171a">
          <tspan
             x="212"
             y="72"
             id="tspan187"
             style="font-style:normal;font-variant:normal;font-weight:normal;font-stretch:normal;font-size:21.33333397px;font-family:IBMPlexSans, 'IBM Plex Sans';-inkscape-font-specification:'IBMPlexSans, IBM Plex Sans, Normal';font-variant-ligatures:normal;font-variant-caps:normal;font-variant-numeric:normal;font-feature-settings:normal;text-align:start;writing-mode:lr-tb;text-anchor:start">Utilisateur</tspan>
        </text>
        <text
           id="I-want-to-give"
           font-size="24"
           font-weight="400"
           style="font-style:normal;font-variant:normal;font-weight:normal;font-stretch:normal;font-size:21.33333397px;font-family:IBMPlexSans-Medium, 'IBM Plex Sans';-inkscape-font-specification:'IBMPlexSans-Medium, IBM Plex Sans, Normal';font-variant-ligatures:normal;font-variant-caps:normal;font-variant-numeric:normal;font-feature-settings:normal;text-align:start;writing-mode:lr-tb;text-anchor:start;fill:#13171a"
           x="4.6216755"
           y="-19.64212">
          <tspan
             sodipodi:role="line"
             id="tspan286"
             x="4.6216755"
             y="-0.17907302"></tspan>
          <tspan
             sodipodi:role="line"
             id="tspan288"
             x="4.6216755"
             y="26.487595">Je souhaite</tspan>
          <tspan
             sodipodi:role="line"
             id="tspan290"
             x="4.6216755"
             y="53.154263">accorder à</tspan>
        </text>
        <text
           id="access-to"
           font-size="24"
           font-weight="400"
           style="font-style:normal;font-variant:normal;font-weight:normal;font-stretch:normal;font-size:21.33333397px;font-family:IBMPlexSans-Medium, 'IBM Plex Sans';-inkscape-font-specification:'IBMPlexSans-Medium, IBM Plex Sans, Normal';font-variant-ligatures:normal;font-variant-caps:normal;font-variant-numeric:normal;font-feature-settings:normal;text-align:start;writing-mode:lr-tb;text-anchor:start;fill:#13171a">
          <tspan
             x="360"
             y="25"
             id="tspan193"
             style="font-style:normal;font-variant:normal;font-weight:normal;font-stretch:normal;font-size:21.33333397px;font-family:IBMPlexSans-Medium, 'IBM Plex Sans';-inkscape-font-specification:'IBMPlexSans-Medium, IBM Plex Sans, Normal';font-variant-ligatures:normal;font-variant-caps:normal;font-variant-numeric:normal;font-feature-settings:normal;text-align:start;writing-mode:lr-tb;text-anchor:start">l'accès à</tspan>
        </text>
        <text
           id="with-specific-permis"
           font-size="24"
           font-weight="400"
           style="font-style:normal;font-variant:normal;font-weight:normal;font-stretch:normal;font-size:21.33333397px;font-family:IBMPlexSans-Medium, 'IBM Plex Sans';-inkscape-font-specification:'IBMPlexSans-Medium, IBM Plex Sans, Normal';font-variant-ligatures:normal;font-variant-caps:normal;font-variant-numeric:normal;font-feature-settings:normal;text-align:start;writing-mode:lr-tb;text-anchor:start;fill:#13171a"
           x="-10.398769">
          <tspan
             x="867.60126"
             y="25"
             id="tspan196"
             style="font-style:normal;font-variant:normal;font-weight:normal;font-stretch:normal;font-size:21.33333397px;font-family:IBMPlexSans-Medium, 'IBM Plex Sans';-inkscape-font-specification:'IBMPlexSans-Medium, IBM Plex Sans, Normal';font-variant-ligatures:normal;font-variant-caps:normal;font-variant-numeric:normal;font-feature-settings:normal;text-align:start;writing-mode:lr-tb;text-anchor:start">avec des droits spécifiques</tspan>
        </text>
        <path
           d="m 509.375,90.6 c 0.53848,0 0.975,0.402944 0.975,0.9 0,0.497056 -0.43652,0.9 -0.975,0.9 h -9.75 c -0.53848,0 -0.975,-0.402944 -0.975,-0.9 0,-0.497056 0.43652,-0.9 0.975,-0.9 h 9.75 z m 0,-0.6 h -9.75 c -0.89746,0 -1.625,0.671573 -1.625,1.5 0,0.828427 0.72754,1.5 1.625,1.5 h 9.75 C 510.27246,93 511,92.328427 511,91.5 511,90.671573 510.27246,90 509.375,90 v 0 z"
           id="path199"
           inkscape:connector-curvature="0"
           style="fill:#13171a" />
        <path
           d="m 509.37484,95.6 c 0.53846,0 0.97497,0.402944 0.97497,0.9 0,0.497056 -0.43651,0.9 -0.97497,0.9 h -9.74968 c -0.53846,0 -0.97497,-0.402944 -0.97497,-0.9 0,-0.497056 0.43651,-0.9 0.97497,-0.9 h 9.74968 z m 0,-0.6 h -9.74968 c -0.43551,-5.1e-5 -0.85281,0.161274 -1.15831,0.447791 -0.30549,0.286517 -0.47361,0.674242 -0.46664,1.076209 v 0 c 0.0142,0.81904 0.73757,1.476105 1.62495,1.476 h 9.74968 c 0.88738,1.05e-4 1.61075,-0.65696 1.62495,-1.476 v 0 c 0.007,-0.401967 -0.16115,-0.789692 -0.46664,-1.076209 -0.3055,-0.286517 -0.7228,-0.447842 -1.15831,-0.447791 v 0 z"
           id="path201"
           inkscape:connector-curvature="0"
           style="fill:#13171a" />
        <path
           d="m 509.375,99.6 c 0.53848,0 0.975,0.40294 0.975,0.9 0,0.49706 -0.43652,0.9 -0.975,0.9 h -9.75 c -0.53848,0 -0.975,-0.40294 -0.975,-0.9 0,-0.49706 0.43652,-0.9 0.975,-0.9 h 9.75 z m 0,-0.6 h -9.75 c -0.89746,0 -1.625,0.671573 -1.625,1.5 0,0.82843 0.72754,1.5 1.625,1.5 h 9.75 c 0.89746,0 1.625,-0.67157 1.625,-1.5 0,-0.828427 -0.72754,-1.5 -1.625,-1.5 v 0 z"
           id="path203"
           inkscape:connector-curvature="0"
           style="fill:#13171a" />
        <path
           d="m 508.67857,92 h -8.35714 C 500.14391,92 500,91.776142 500,91.5 c 0,-0.276142 0.14391,-0.5 0.32143,-0.5 h 8.35714 C 508.85609,91 509,91.223858 509,91.5 c 0,0.276142 -0.14391,0.5 -0.32143,0.5 z"
           id="path205"
           inkscape:connector-curvature="0"
           style="fill:#13171a" />
        <path
           d="m 508.67857,97 h -8.35714 C 500.14391,97 500,96.776142 500,96.5 c 0,-0.276142 0.14391,-0.5 0.32143,-0.5 h 8.35714 C 508.85609,96 509,96.223858 509,96.5 c 0,0.276142 -0.14391,0.5 -0.32143,0.5 z"
           id="path207"
           inkscape:connector-curvature="0"
           style="fill:#13171a" />
        <path
           d="m 508.67857,101 h -8.35714 C 500.14391,101 500,100.77614 500,100.5 c 0,-0.27614 0.14391,-0.5 0.32143,-0.5 h 8.35714 c 0.17752,0 0.32143,0.22386 0.32143,0.5 0,0.27614 -0.14391,0.5 -0.32143,0.5 z"
           id="path209"
           inkscape:connector-curvature="0"
           style="fill:#13171a" />
        <path
           d="m 530.375,90.6 c 0.53848,0 0.975,0.402944 0.975,0.9 0,0.497056 -0.43652,0.9 -0.975,0.9 h -9.75 c -0.53848,0 -0.975,-0.402944 -0.975,-0.9 0,-0.497056 0.43652,-0.9 0.975,-0.9 h 9.75 z m 0,-0.6 h -9.75 c -0.89746,0 -1.625,0.671573 -1.625,1.5 0,0.828427 0.72754,1.5 1.625,1.5 h 9.75 C 531.27246,93 532,92.328427 532,91.5 532,90.671573 531.27246,90 530.375,90 v 0 z"
           id="path211"
           inkscape:connector-curvature="0"
           style="fill:#13171a" />
        <path
           d="m 530.37484,95.6 c 0.53846,0 0.97497,0.402944 0.97497,0.9 0,0.497056 -0.43651,0.9 -0.97497,0.9 h -9.74968 c -0.53846,0 -0.97497,-0.402944 -0.97497,-0.9 0,-0.497056 0.43651,-0.9 0.97497,-0.9 h 9.74968 z m 0,-0.6 h -9.74968 c -0.43551,-5.1e-5 -0.85281,0.161274 -1.15831,0.447791 -0.30549,0.286517 -0.47361,0.674242 -0.46664,1.076209 v 0 c 0.0142,0.81904 0.73757,1.476105 1.62495,1.476 h 9.74968 c 0.88738,1.05e-4 1.61075,-0.65696 1.62495,-1.476 v 0 c 0.007,-0.401967 -0.16115,-0.789692 -0.46664,-1.076209 -0.3055,-0.286517 -0.7228,-0.447842 -1.15831,-0.447791 v 0 z"
           id="path213"
           inkscape:connector-curvature="0"
           style="fill:#13171a" />
        <path
           d="m 530.375,99.6 c 0.53848,0 0.975,0.40294 0.975,0.9 0,0.49706 -0.43652,0.9 -0.975,0.9 h -9.75 c -0.53848,0 -0.975,-0.40294 -0.975,-0.9 0,-0.49706 0.43652,-0.9 0.975,-0.9 h 9.75 z m 0,-0.6 h -9.75 c -0.89746,0 -1.625,0.671573 -1.625,1.5 0,0.82843 0.72754,1.5 1.625,1.5 h 9.75 c 0.89746,0 1.625,-0.67157 1.625,-1.5 0,-0.828427 -0.72754,-1.5 -1.625,-1.5 v 0 z"
           id="path215"
           inkscape:connector-curvature="0"
           style="fill:#13171a" />
        <path
           d="m 529.67857,92 h -8.35714 C 521.14391,92 521,91.776142 521,91.5 c 0,-0.276142 0.14391,-0.5 0.32143,-0.5 h 8.35714 C 529.85609,91 530,91.223858 530,91.5 c 0,0.276142 -0.14391,0.5 -0.32143,0.5 z"
           id="path217"
           inkscape:connector-curvature="0"
           style="fill:#13171a" />
        <path
           d="m 529.67857,97 h -8.35714 C 521.14391,97 521,96.776142 521,96.5 c 0,-0.276142 0.14391,-0.5 0.32143,-0.5 h 8.35714 C 529.85609,96 530,96.223858 530,96.5 c 0,0.276142 -0.14391,0.5 -0.32143,0.5 z"
           id="path219"
           inkscape:connector-curvature="0"
           style="fill:#13171a" />
        <path
           d="m 529.67857,101 h -8.35714 C 521.14391,101 521,100.77614 521,100.5 c 0,-0.27614 0.14391,-0.5 0.32143,-0.5 h 8.35714 c 0.17752,0 0.32143,0.22386 0.32143,0.5 0,0.27614 -0.14391,0.5 -0.32143,0.5 z"
           id="path221"
           inkscape:connector-curvature="0"
           style="fill:#13171a" />
        <path
           d="m 551.375,90.6 c 0.53848,0 0.975,0.402944 0.975,0.9 0,0.497056 -0.43652,0.9 -0.975,0.9 h -9.75 c -0.53848,0 -0.975,-0.402944 -0.975,-0.9 0,-0.497056 0.43652,-0.9 0.975,-0.9 h 9.75 z m 0,-0.6 h -9.75 c -0.89746,0 -1.625,0.671573 -1.625,1.5 0,0.828427 0.72754,1.5 1.625,1.5 h 9.75 C 552.27246,93 553,92.328427 553,91.5 553,90.671573 552.27246,90 551.375,90 v 0 z"
           id="path223"
           inkscape:connector-curvature="0"
           style="fill:#13171a" />
        <path
           d="m 551.37484,95.6 c 0.53846,0 0.97497,0.402944 0.97497,0.9 0,0.497056 -0.43651,0.9 -0.97497,0.9 h -9.74968 c -0.53846,0 -0.97497,-0.402944 -0.97497,-0.9 0,-0.497056 0.43651,-0.9 0.97497,-0.9 h 9.74968 z m 0,-0.6 h -9.74968 c -0.43551,-5.1e-5 -0.85281,0.161274 -1.15831,0.447791 -0.30549,0.286517 -0.47361,0.674242 -0.46664,1.076209 v 0 c 0.0142,0.81904 0.73757,1.476105 1.62495,1.476 h 9.74968 c 0.88738,1.05e-4 1.61075,-0.65696 1.62495,-1.476 v 0 c 0.007,-0.401967 -0.16115,-0.789692 -0.46664,-1.076209 -0.3055,-0.286517 -0.7228,-0.447842 -1.15831,-0.447791 v 0 z"
           id="path225"
           inkscape:connector-curvature="0"
           style="fill:#13171a" />
        <path
           d="m 551.375,99.6 c 0.53848,0 0.975,0.40294 0.975,0.9 0,0.49706 -0.43652,0.9 -0.975,0.9 h -9.75 c -0.53848,0 -0.975,-0.40294 -0.975,-0.9 0,-0.49706 0.43652,-0.9 0.975,-0.9 h 9.75 z m 0,-0.6 h -9.75 c -0.89746,0 -1.625,0.671573 -1.625,1.5 0,0.82843 0.72754,1.5 1.625,1.5 h 9.75 c 0.89746,0 1.625,-0.67157 1.625,-1.5 0,-0.828427 -0.72754,-1.5 -1.625,-1.5 v 0 z"
           id="path227"
           inkscape:connector-curvature="0"
           style="fill:#13171a" />
        <path
           d="m 550.67857,92 h -8.35714 C 542.14391,92 542,91.776142 542,91.5 c 0,-0.276142 0.14391,-0.5 0.32143,-0.5 h 8.35714 C 550.85609,91 551,91.223858 551,91.5 c 0,0.276142 -0.14391,0.5 -0.32143,0.5 z"
           id="path229"
           inkscape:connector-curvature="0"
           style="fill:#13171a" />
        <path
           d="m 550.67857,97 h -8.35714 C 542.14391,97 542,96.776142 542,96.5 c 0,-0.276142 0.14391,-0.5 0.32143,-0.5 h 8.35714 C 550.85609,96 551,96.223858 551,96.5 c 0,0.276142 -0.14391,0.5 -0.32143,0.5 z"
           id="path231"
           inkscape:connector-curvature="0"
           style="fill:#13171a" />
        <path
           d="m 550.67857,101 h -8.35714 C 542.14391,101 542,100.77614 542,100.5 c 0,-0.27614 0.14391,-0.5 0.32143,-0.5 h 8.35714 c 0.17752,0 0.32143,0.22386 0.32143,0.5 0,0.27614 -0.14391,0.5 -0.32143,0.5 z"
           id="path233"
           inkscape:connector-curvature="0"
           style="fill:#13171a" />
        <path
           d="m 571.375,90.6 c 0.53848,0 0.975,0.402944 0.975,0.9 0,0.497056 -0.43652,0.9 -0.975,0.9 h -9.75 c -0.53848,0 -0.975,-0.402944 -0.975,-0.9 0,-0.497056 0.43652,-0.9 0.975,-0.9 h 9.75 z m 0,-0.6 h -9.75 c -0.89746,0 -1.625,0.671573 -1.625,1.5 0,0.828427 0.72754,1.5 1.625,1.5 h 9.75 C 572.27246,93 573,92.328427 573,91.5 573,90.671573 572.27246,90 571.375,90 v 0 z"
           id="path235"
           inkscape:connector-curvature="0"
           style="fill:#13171a" />
        <path
           d="m 571.37484,95.6 c 0.53846,0 0.97497,0.402944 0.97497,0.9 0,0.497056 -0.43651,0.9 -0.97497,0.9 h -9.74968 c -0.53846,0 -0.97497,-0.402944 -0.97497,-0.9 0,-0.497056 0.43651,-0.9 0.97497,-0.9 h 9.74968 z m 0,-0.6 h -9.74968 c -0.43551,-5.1e-5 -0.85281,0.161274 -1.15831,0.447791 -0.30549,0.286517 -0.47361,0.674242 -0.46664,1.076209 v 0 c 0.0142,0.81904 0.73757,1.476105 1.62495,1.476 h 9.74968 c 0.88738,1.05e-4 1.61075,-0.65696 1.62495,-1.476 v 0 c 0.007,-0.401967 -0.16115,-0.789692 -0.46664,-1.076209 -0.3055,-0.286517 -0.7228,-0.447842 -1.15831,-0.447791 v 0 z"
           id="path237"
           inkscape:connector-curvature="0"
           style="fill:#13171a" />
        <path
           d="m 571.375,99.6 c 0.53848,0 0.975,0.40294 0.975,0.9 0,0.49706 -0.43652,0.9 -0.975,0.9 h -9.75 c -0.53848,0 -0.975,-0.40294 -0.975,-0.9 0,-0.49706 0.43652,-0.9 0.975,-0.9 h 9.75 z m 0,-0.6 h -9.75 c -0.89746,0 -1.625,0.671573 -1.625,1.5 0,0.82843 0.72754,1.5 1.625,1.5 h 9.75 c 0.89746,0 1.625,-0.67157 1.625,-1.5 0,-0.828427 -0.72754,-1.5 -1.625,-1.5 v 0 z"
           id="path239"
           inkscape:connector-curvature="0"
           style="fill:#13171a" />
        <path
           d="m 570.67857,92 h -8.35714 C 562.14391,92 562,91.776142 562,91.5 c 0,-0.276142 0.14391,-0.5 0.32143,-0.5 h 8.35714 C 570.85609,91 571,91.223858 571,91.5 c 0,0.276142 -0.14391,0.5 -0.32143,0.5 z"
           id="path241"
           inkscape:connector-curvature="0"
           style="fill:#13171a" />
        <path
           d="m 570.67857,97 h -8.35714 C 562.14391,97 562,96.776142 562,96.5 c 0,-0.276142 0.14391,-0.5 0.32143,-0.5 h 8.35714 C 570.85609,96 571,96.223858 571,96.5 c 0,0.276142 -0.14391,0.5 -0.32143,0.5 z"
           id="path243"
           inkscape:connector-curvature="0"
           style="fill:#13171a" />
        <path
           d="m 570.67857,101 h -8.35714 C 562.14391,101 562,100.77614 562,100.5 c 0,-0.27614 0.14391,-0.5 0.32143,-0.5 h 8.35714 c 0.17752,0 0.32143,0.22386 0.32143,0.5 0,0.27614 -0.14391,0.5 -0.32143,0.5 z"
           id="path245"
           inkscape:connector-curvature="0"
           style="fill:#13171a" />
        <path
           d="m 592.375,90.6 c 0.53848,0 0.975,0.402944 0.975,0.9 0,0.497056 -0.43652,0.9 -0.975,0.9 h -9.75 c -0.53848,0 -0.975,-0.402944 -0.975,-0.9 0,-0.497056 0.43652,-0.9 0.975,-0.9 h 9.75 z m 0,-0.6 h -9.75 c -0.89746,0 -1.625,0.671573 -1.625,1.5 0,0.828427 0.72754,1.5 1.625,1.5 h 9.75 C 593.27246,93 594,92.328427 594,91.5 594,90.671573 593.27246,90 592.375,90 v 0 z"
           id="path247"
           inkscape:connector-curvature="0"
           style="fill:#13171a" />
        <path
           d="m 592.37484,95.6 c 0.53846,0 0.97497,0.402944 0.97497,0.9 0,0.497056 -0.43651,0.9 -0.97497,0.9 h -9.74968 c -0.53846,0 -0.97497,-0.402944 -0.97497,-0.9 0,-0.497056 0.43651,-0.9 0.97497,-0.9 h 9.74968 z m 0,-0.6 h -9.74968 c -0.43551,-5.1e-5 -0.85281,0.161274 -1.15831,0.447791 -0.30549,0.286517 -0.47361,0.674242 -0.46664,1.076209 v 0 c 0.0142,0.81904 0.73757,1.476105 1.62495,1.476 h 9.74968 c 0.88738,1.05e-4 1.61075,-0.65696 1.62495,-1.476 v 0 c 0.007,-0.401967 -0.16115,-0.789692 -0.46664,-1.076209 -0.3055,-0.286517 -0.7228,-0.447842 -1.15831,-0.447791 v 0 z"
           id="path249"
           inkscape:connector-curvature="0"
           style="fill:#13171a" />
        <path
           d="m 592.375,99.6 c 0.53848,0 0.975,0.40294 0.975,0.9 0,0.49706 -0.43652,0.9 -0.975,0.9 h -9.75 c -0.53848,0 -0.975,-0.40294 -0.975,-0.9 0,-0.49706 0.43652,-0.9 0.975,-0.9 h 9.75 z m 0,-0.6 h -9.75 c -0.89746,0 -1.625,0.671573 -1.625,1.5 0,0.82843 0.72754,1.5 1.625,1.5 h 9.75 c 0.89746,0 1.625,-0.67157 1.625,-1.5 0,-0.828427 -0.72754,-1.5 -1.625,-1.5 v 0 z"
           id="path251"
           inkscape:connector-curvature="0"
           style="fill:#13171a" />
        <path
           d="m 591.67857,92 h -8.35714 C 583.14391,92 583,91.776142 583,91.5 c 0,-0.276142 0.14391,-0.5 0.32143,-0.5 h 8.35714 C 591.85609,91 592,91.223858 592,91.5 c 0,0.276142 -0.14391,0.5 -0.32143,0.5 z"
           id="path253"
           inkscape:connector-curvature="0"
           style="fill:#13171a" />
        <path
           d="m 591.67857,97 h -8.35714 C 583.14391,97 583,96.776142 583,96.5 c 0,-0.276142 0.14391,-0.5 0.32143,-0.5 h 8.35714 C 591.85609,96 592,96.223858 592,96.5 c 0,0.276142 -0.14391,0.5 -0.32143,0.5 z"
           id="path255"
           inkscape:connector-curvature="0"
           style="fill:#13171a" />
        <path
           d="m 591.67857,101 h -8.35714 C 583.14391,101 583,100.77614 583,100.5 c 0,-0.27614 0.14391,-0.5 0.32143,-0.5 h 8.35714 c 0.17752,0 0.32143,0.22386 0.32143,0.5 0,0.27614 -0.14391,0.5 -0.32143,0.5 z"
           id="path257"
           inkscape:connector-curvature="0"
           style="fill:#13171a" />
        <path
           d="m 613.375,90.6 c 0.53848,0 0.975,0.402944 0.975,0.9 0,0.497056 -0.43652,0.9 -0.975,0.9 h -9.75 c -0.53848,0 -0.975,-0.402944 -0.975,-0.9 0,-0.497056 0.43652,-0.9 0.975,-0.9 h 9.75 z m 0,-0.6 h -9.75 c -0.89746,0 -1.625,0.671573 -1.625,1.5 0,0.828427 0.72754,1.5 1.625,1.5 h 9.75 C 614.27246,93 615,92.328427 615,91.5 615,90.671573 614.27246,90 613.375,90 v 0 z"
           id="path259"
           inkscape:connector-curvature="0"
           style="fill:#13171a" />
        <path
           d="m 613.37484,95.6 c 0.53846,0 0.97497,0.402944 0.97497,0.9 0,0.497056 -0.43651,0.9 -0.97497,0.9 h -9.74968 c -0.53846,0 -0.97497,-0.402944 -0.97497,-0.9 0,-0.497056 0.43651,-0.9 0.97497,-0.9 h 9.74968 z m 0,-0.6 h -9.74968 c -0.43551,-5.1e-5 -0.85281,0.161274 -1.15831,0.447791 -0.30549,0.286517 -0.47361,0.674242 -0.46664,1.076209 v 0 c 0.0142,0.81904 0.73757,1.476105 1.62495,1.476 h 9.74968 c 0.88738,1.05e-4 1.61075,-0.65696 1.62495,-1.476 v 0 c 0.007,-0.401967 -0.16115,-0.789692 -0.46664,-1.076209 -0.3055,-0.286517 -0.7228,-0.447842 -1.15831,-0.447791 v 0 z"
           id="path261"
           inkscape:connector-curvature="0"
           style="fill:#13171a" />
        <path
           d="m 613.375,99.6 c 0.53848,0 0.975,0.40294 0.975,0.9 0,0.49706 -0.43652,0.9 -0.975,0.9 h -9.75 c -0.53848,0 -0.975,-0.40294 -0.975,-0.9 0,-0.49706 0.43652,-0.9 0.975,-0.9 h 9.75 z m 0,-0.6 h -9.75 c -0.89746,0 -1.625,0.671573 -1.625,1.5 0,0.82843 0.72754,1.5 1.625,1.5 h 9.75 c 0.89746,0 1.625,-0.67157 1.625,-1.5 0,-0.828427 -0.72754,-1.5 -1.625,-1.5 v 0 z"
           id="path263"
           inkscape:connector-curvature="0"
           style="fill:#13171a" />
        <path
           d="m 612.67857,92 h -8.35714 C 604.14391,92 604,91.776142 604,91.5 c 0,-0.276142 0.14391,-0.5 0.32143,-0.5 h 8.35714 C 612.85609,91 613,91.223858 613,91.5 c 0,0.276142 -0.14391,0.5 -0.32143,0.5 z"
           id="path265"
           inkscape:connector-curvature="0"
           style="fill:#13171a" />
        <path
           d="m 612.67857,97 h -8.35714 C 604.14391,97 604,96.776142 604,96.5 c 0,-0.276142 0.14391,-0.5 0.32143,-0.5 h 8.35714 C 612.85609,96 613,96.223858 613,96.5 c 0,0.276142 -0.14391,0.5 -0.32143,0.5 z"
           id="path267"
           inkscape:connector-curvature="0"
           style="fill:#13171a" />
        <path
           d="m 612.67857,101 h -8.35714 C 604.14391,101 604,100.77614 604,100.5 c 0,-0.27614 0.14391,-0.5 0.32143,-0.5 h 8.35714 c 0.17752,0 0.32143,0.22386 0.32143,0.5 0,0.27614 -0.14391,0.5 -0.32143,0.5 z"
           id="path269"
           inkscape:connector-curvature="0"
           style="fill:#13171a" />
        <text
           id="Subject"
           font-size="18"
           font-style="italic"
           font-weight="normal"
           style="font-style:italic;font-weight:normal;font-size:18px;font-family:IBMPlexSans-Italic, 'IBM Plex Sans';fill:#13171a">
          <tspan
             x="163"
             y="24"
             id="tspan271">Objet</tspan>
        </text>
        <text
           id="Target"
           font-size="18"
           font-style="italic"
           font-weight="normal"
           style="font-style:italic;font-weight:normal;font-size:18px;font-family:IBMPlexSans-Italic, 'IBM Plex Sans';fill:#13171a">
          <tspan
             x="478"
             y="24"
             id="tspan274">Cible</tspan>
        </text>
      </g>
    </g>
  </g>
</svg>
